<?xml version="1.0" encoding="UTF-8"?>
<!DOCTYPE svg PUBLIC "-//W3C//DTD SVG 1.1//EN" "http://www.w3.org/Graphics/SVG/1.1/DTD/svg11.dtd">
<!-- Creator: CorelDRAW 2019 (64-Bit Оценочная версия) -->
<svg xmlns="http://www.w3.org/2000/svg" xml:space="preserve" width="15mm" height="7mm" version="1.1" style="shape-rendering:geometricPrecision; text-rendering:geometricPrecision; image-rendering:optimizeQuality; fill-rule:evenodd; clip-rule:evenodd"
viewBox="0 0 1500 700"
 xmlns:xlink="http://www.w3.org/1999/xlink"
 xmlns:dc="http://purl.org/dc/elements/1.1/"
 xmlns:cc="http://creativecommons.org/ns#"
 xmlns:rdf="http://www.w3.org/1999/02/22-rdf-syntax-ns#"
 xmlns:svg="http://www.w3.org/2000/svg">
 <defs>
  <style type="text/css">
   <![CDATA[
    .fil4 {fill:none}
    .fil3 {fill:#0071BB;fill-rule:nonzero}
    .fil2 {fill:#231F20;fill-rule:nonzero}
    .fil0 {fill:#EC1C24;fill-rule:nonzero}
    .fil1 {fill:white;fill-rule:nonzero}
   ]]>
  </style>
     <clipPath id="id0">
      <path d="M-397.35 94.45l2294.76 0 0 933.45 -2294.76 0 0 -933.45z"/>
     </clipPath>
 </defs>
 <g id="Слой_x0020_1">
  <metadata id="CorelCorpID_0Corel-Layer"/>
  <g id="g10">
   <g id="g24">
    <g>
    </g>
    <g style="clip-path:url(#id0)">
     <g>
      <path id="path152" class="fil0" d="M870.1 200.65c0,0 -4.92,-0.17 -4.92,-0.17l-39.37 0c-9.06,-25.54 -29.15,-46.03 -54.53,-55.62l0 -44.13 -65.75 0.01 0 44.42c-25.01,9.7 -44.79,30.06 -53.78,55.32l-39.56 0c0,0 -0.99,0.07 -1.37,0.1l-1.19 0c-49.4,0.83 -89.6,41.72 -89.6,91.15 0,44.02 31.38,81.7 74.62,89.64 0,0 1.88,0.37 2.52,0.47l0 38.7 107.72 0.01 0 -0.04 0.64 0 0 24.64 65.75 0 0 -24.64 2.63 0.04 107.05 0 0 -38.92c43.41,-6.95 76.77,-44.59 76.77,-89.89 0,-49.21 -38.49,-89.2 -87.63,-91.09z"/>
      <path id="path156" class="fil1" d="M969.21 455.85c0,0 -1.39,-0.61 -3.89,-1.7 -1.24,-0.49 -2.78,-1.07 -4.56,-1.71 -1.76,-0.62 -3.76,-1.26 -5.99,-1.83 -2.24,-0.47 -4.68,-0.77 -7.28,-0.85 -2.62,0.26 -5.41,0.81 -8.34,1.45 -23.43,5.18 -55.99,12.39 -80.21,17.74 -1.93,0.41 -3.81,0.84 -5.62,1.19 -1.82,0.37 -3.57,0.59 -5.26,0.78 -3.35,-0.09 -6.41,-0.84 -9.08,-2.01 -2.68,-1.55 -5,-3.17 -6.93,-4.59 -3.8,-3.44 -5.98,-5.69 -5.98,-5.69 0,0 -0.03,-1.37 -0.08,-3.53 -0.05,-2.19 -0.12,-5.03 -0.18,-8.43 -0.02,-1.74 -0.02,-3.69 -0.02,-5.78 0,-2.07 0,-4.31 0.03,-6.61 0.02,-2.32 0.05,-4.47 0.08,-6.51 0.04,-1.91 0.07,-3.71 0.1,-5.27 0.06,-3.14 0.09,-5.76 0.12,-7.6 0.01,-1.86 0.03,-2.97 0.03,-2.97 0,0 2.17,2.33 5.98,6.22 1.91,1.8 4.23,3.86 6.89,5.77 2.69,1.89 5.72,3.2 9.06,3.77 1.67,-0.04 3.42,-0.25 5.23,-0.6 1.82,-0.37 3.69,-0.78 5.63,-1.2 24.22,-5.35 56.78,-12.56 80.21,-17.73 2.91,-0.67 5.71,-1.17 8.33,-1.35 2.64,0.05 5.07,0.31 7.31,0.72 2.23,0.6 4.25,1.27 6.03,1.96 1.78,0.73 3.3,1.4 4.55,1.94 2.51,1.08 3.88,1.65 3.88,1.65 0,0 0.02,1.29 0.02,3.38l0 7.86c0,1.58 -0.01,3.27 -0.01,5.02 0,1.73 -0.02,3.53 -0.03,5.32 -0.02,1.8 -0.02,3.59 -0.02,5.35 0,1.77 0,3.47 0,5.13l0 7.69 0 3.02z"/>
      <path id="path160" class="fil2" d="M840.7 465.5c2.28,0.98 4.72,1.52 7.22,1.62 1.5,-0.16 3.06,-0.37 4.67,-0.7 1.39,-0.28 2.86,-0.59 4.34,-0.92l81.41 -18c2.84,-0.64 5.87,-1.25 8.79,-1.52l0.22 -0.01 0.24 0c2.67,0.07 5.34,0.37 7.94,0.89 2.46,0.65 4.59,1.31 6.52,1.99 1.24,0.47 2.36,0.89 3.36,1.28l0.06 -34.53c-0.45,-0.19 -0.99,-0.41 -1.58,-0.67 -1.53,-0.68 -2.93,-1.28 -4.5,-1.91 -1.76,-0.69 -3.66,-1.31 -5.58,-1.82 -1.83,-0.33 -4.07,-0.54 -6.39,-0.58 -1.76,0.13 -4.24,0.53 -7.43,1.25l-81.63 18.03c-1.47,0.34 -2.9,0.62 -4.3,0.93 -2.08,0.38 -4.05,0.61 -5.89,0.66l-0.37 0 -0.37 -0.06c-3.82,-0.66 -7.39,-2.14 -10.6,-4.41 -2.28,-1.64 -4.51,-3.5 -7.01,-5.83l-0.12 6.64c-0.03,2.04 -0.06,4.17 -0.08,6.47 -0.03,2.29 -0.03,4.51 -0.03,6.58 0,2.08 0,4 0.02,5.77l0.23 10.36c0.96,0.96 2.59,2.51 4.77,4.48 1.78,1.34 3.91,2.75 6.09,4.01l0 0zm7.51 9.22l-0.24 -0.02c-3.65,-0.07 -7.19,-0.87 -10.51,-2.3l-0.39 -0.21c-2.5,-1.46 -4.96,-3.09 -7.3,-4.85 -4.19,-3.76 -6.42,-6.05 -6.42,-6.05l-1.05 -1.08 -0.29 -13.46c-0.02,-1.8 -0.02,-3.75 -0.02,-5.87 0,-2.09 0,-4.32 0.04,-6.66 0.01,-2.32 0.04,-4.48 0.08,-6.52l0.46 -25.24 6.36 6.88c0.04,0 2.18,2.32 5.92,6.16 1.37,1.29 3.66,3.38 6.39,5.33 2.17,1.52 4.55,2.56 7.12,3.05 1.32,-0.06 2.75,-0.23 4.25,-0.53 1.32,-0.25 2.71,-0.56 4.13,-0.86l1.39 -0.29 80.21 -17.74c3.56,-0.81 6.4,-1.26 8.88,-1.44 3.07,0.05 5.74,0.31 8.26,0.78 2.48,0.66 4.64,1.35 6.71,2.14 1.71,0.7 3.15,1.34 4.36,1.86 2.78,1.19 4.13,1.75 4.15,1.75l2.36 0.97 0.03 13.8 -0.09 37.4 -5.35 -2.41c0,0 -1.37,-0.61 -3.82,-1.65 -1.13,-0.45 -2.62,-1.03 -4.35,-1.63 -1.72,-0.64 -3.65,-1.21 -5.69,-1.75 -1.89,-0.39 -4.03,-0.65 -6.19,-0.72 -2.42,0.24 -5.1,0.8 -7.63,1.37l-81.43 17.99c-1.52,0.34 -3.01,0.65 -4.46,0.95 -1.94,0.39 -3.83,0.64 -5.63,0.82l-0.24 0.03z"/>
      <path id="path164" class="fil3" d="M969.21 497.42c0,0 -1.51,-0.63 -4.25,-1.74 -1.35,-0.57 -3,-1.16 -4.92,-1.73 -1.92,-0.49 -4.1,-0.93 -6.51,-1.18 -2.4,-0.07 -5.03,0 -7.85,0.23 -2.82,0.46 -5.81,1.09 -8.94,1.79 -25.14,5.57 -59.57,13.19 -83.42,18.45 -1.81,0.41 -3.56,0.78 -5.24,1.06 -3.33,0.61 -6.34,0.86 -8.98,0.86 -2.63,-0.22 -4.87,-0.73 -6.7,-1.48 -3.56,-2.21 -5.55,-3.78 -5.55,-3.78 0,0 0,-1.25 0.02,-3.44 0,-1.07 0.01,-2.45 0.05,-4.1 0.02,-1.66 0.03,-3.62 0.06,-5.85 0.02,-2.33 0.04,-4.75 0.02,-7.07 0,-2.38 -0.03,-4.61 -0.05,-6.76 -0.07,-2.29 -0.11,-4.46 -0.19,-6.53 -0.07,-2.01 -0.13,-3.94 -0.22,-5.63 -0.14,-3.39 -0.25,-6.29 -0.34,-8.42 -0.07,-2.18 -0.11,-3.47 -0.11,-3.47 0,0 2.17,2.24 5.97,5.69 1.93,1.43 4.25,3.05 6.95,4.52 2.66,1.24 5.72,2.01 9.07,2.08 1.69,-0.19 3.44,-0.4 5.26,-0.78 1.81,-0.35 3.69,-0.78 5.61,-1.19 24.24,-5.35 56.79,-12.56 80.21,-17.74 2.93,-0.65 5.72,-1.2 8.33,-1.47 2.6,0.08 5.04,0.37 7.28,0.85 2.23,0.59 4.23,1.21 5.99,1.84 1.78,0.62 3.32,1.21 4.56,1.72 2.5,1.08 3.89,1.7 3.89,1.7l0 3.24 0 7.97 0 9.68 0 9.5 0 7.89 0 3.29z"/>
      <path id="path168" class="fil2" d="M834.12 510.28c1.47,0.56 3.25,0.93 5.29,1.09 2.24,-0.01 5.04,-0.27 8.01,-0.79 1.61,-0.3 3.31,-0.64 5.07,-1.05l83.41 -18.44c3,-0.67 6.19,-1.37 9.19,-1.83 3.1,-0.28 5.88,-0.36 8.52,-0.29 2.75,0.29 5.13,0.72 7.39,1.31 1.7,0.51 3.15,1.01 4.41,1.48l0 -33.44c-0.47,-0.2 -1,-0.42 -1.61,-0.7 -1.09,-0.41 -2.57,-0.98 -4.31,-1.6 -1.69,-0.61 -3.59,-1.21 -5.69,-1.77 -1.85,-0.38 -3.99,-0.62 -6.17,-0.7 -2.62,0.28 -5.45,0.87 -7.64,1.35l-81.48 18.04c-1.52,0.31 -2.99,0.63 -4.43,0.93 -1.94,0.4 -3.82,0.64 -5.62,0.82l-0.25 0.03 -0.22 -0.02c-3.74,-0.08 -7.3,-0.88 -10.61,-2.43 -2.5,-1.36 -4.79,-2.85 -7.17,-4.61 0.03,0.85 0.09,1.75 0.12,2.7 0.06,1.68 0.14,3.63 0.21,5.65 0.08,2.07 0.13,4.26 0.18,6.58 0.05,2.19 0.06,4.44 0.08,6.85 0,2.32 -0.02,4.76 -0.03,7.11l-0.11 11.41c0.81,0.61 1.99,1.39 3.46,2.32l0 0zm4.98 8.68c-3.28,-0.24 -5.91,-0.85 -8.13,-1.77l-0.57 -0.27c-3.71,-2.3 -5.84,-3.99 -5.91,-4.07l-1.46 -1.12 0.15 -15.27c0.03,-2.29 0.03,-4.69 0.03,-7 0,-2.35 -0.03,-4.57 -0.06,-6.73 -0.07,-2.23 -0.12,-4.39 -0.2,-6.44 -0.07,-2 -0.13,-3.92 -0.21,-5.61 -0.15,-3.41 -0.26,-6.32 -0.34,-8.44l-0.46 -13.27 6.86 7.02c0.04,0.04 2.13,2.19 5.81,5.5 1.98,1.48 4.08,2.85 6.21,4.02 2.05,0.93 4.51,1.53 7.1,1.59 1.5,-0.14 3.06,-0.35 4.66,-0.69 1.4,-0.27 2.84,-0.59 4.31,-0.9l31.54 -6.98 49.9 -11.02c2.46,-0.56 5.7,-1.25 8.79,-1.56l0.24 0 0.24 0c2.72,0.06 5.4,0.4 7.95,0.9 2.51,0.67 4.63,1.32 6.51,2.01 1.8,0.64 3.37,1.24 4.64,1.75 2.65,1.14 4.05,1.76 4.05,1.76l2.26 1.03 0 49.8 -5.31 -2.28c-0.01,0 -1.51,-0.65 -4.17,-1.74 -1.26,-0.51 -2.79,-1.05 -4.57,-1.59 -1.79,-0.48 -3.78,-0.82 -5.83,-1.04 -2.09,-0.04 -4.59,0.03 -7.14,0.24 -2.52,0.41 -5.56,1.06 -8.43,1.69l-83.41 18.45c-1.87,0.44 -3.68,0.82 -5.39,1.13 -3.42,0.6 -6.67,0.9 -9.66,0.9z"/>
      <path id="path172" class="fil0" d="M969.21 540.78c0,0 -1.66,-0.59 -4.59,-1.71 -1.49,-0.59 -3.28,-1.26 -5.34,-1.96 -2.08,-0.64 -4.44,-1.19 -7.03,-1.5 -2.6,-0.2 -5.42,0.05 -8.43,0.67 -3.02,0.69 -6.22,1.39 -9.59,2.12 -26.84,5.93 -63.09,13.95 -86.17,19.05 -3.37,0.75 -6.44,1.34 -9.11,1.45 -2.6,-0.35 -4.84,-1.06 -6.63,-1.93 -3.45,-2.47 -5.38,-4.3 -5.38,-4.3l0 -3.84c0,-2.26 -0.03,-5.32 -0.06,-8.73 -0.01,-1.69 -0.01,-3.47 -0.01,-5.27 0,-1.75 0,-3.49 0,-5.2 -0.02,-1.61 -0.03,-3.19 -0.03,-4.72 0,-1.49 0,-2.99 0,-4.41 -0.03,-2.85 -0.03,-5.48 -0.03,-7.42 0,-1.98 0.03,-3.18 0.03,-3.18 0,0 1.99,1.6 5.55,3.8 1.83,0.75 4.08,1.26 6.7,1.49 2.64,-0.02 5.65,-0.28 8.98,-0.87 1.68,-0.28 3.43,-0.66 5.24,-1.07 23.86,-5.26 58.27,-12.89 83.41,-18.43 3.14,-0.71 6.13,-1.36 8.94,-1.7 2.82,-0.35 5.46,-0.38 7.86,-0.33 2.41,0.23 4.6,0.67 6.51,1.18 1.92,0.57 3.58,1.14 4.93,1.71 2.73,1.13 4.25,1.78 4.25,1.78l0 3.45 0 8.61 0 5.27 0 5.17 0 9.96 0 7.75 0 3.11z"/>
      <path id="path176" class="fil2" d="M834.26 553.69c1.4,0.65 3.08,1.12 4.86,1.4 2.08,-0.12 4.61,-0.54 8.1,-1.35l95.77 -21.17c3.49,-0.72 6.68,-0.98 9.56,-0.75 2.67,0.33 5.25,0.87 7.83,1.67 1.96,0.67 3.63,1.29 5.02,1.81l0 -35.32c-0.52,-0.23 -1.16,-0.47 -1.88,-0.78 -1.3,-0.54 -2.83,-1.06 -4.58,-1.61 -1.79,-0.45 -3.78,-0.81 -5.81,-1.02 -2.45,-0.07 -4.75,0.05 -7.01,0.31 -2.58,0.33 -5.4,0.92 -8.55,1.63l-83.44 18.44c-1.86,0.41 -3.66,0.81 -5.37,1.12 -3.42,0.58 -6.65,0.89 -9.65,0.91 -3.27,-0.26 -5.88,-0.85 -8.14,-1.75l-0.36 -0.16c0.02,1.06 0.02,2.23 0.02,3.4l0.05 19.6c0.03,3.44 0.05,6.49 0.06,8.74l-0.01 2.12c0.8,0.69 1.99,1.65 3.53,2.76l0 0zm4.52 9.04l-0.36 -0.05c-2.85,-0.43 -5.45,-1.18 -7.76,-2.29l-0.56 -0.33c-3.63,-2.61 -5.7,-4.56 -5.78,-4.66l-1.2 -1.1 0 -5.48c0,-2.25 -0.02,-5.27 -0.05,-8.7l-0.05 -19.62c0,-2.84 -0.02,-5.49 0,-7.43l0.06 -10.98 6.11 4.85c0.03,0.02 1.79,1.42 4.91,3.34 1.5,0.58 3.28,0.94 5.3,1.12 2.25,-0.03 5.06,-0.3 8.04,-0.82 1.6,-0.27 3.3,-0.65 5.06,-1.05l83.41 -18.42c3.35,-0.76 6.38,-1.41 9.3,-1.75 2.63,-0.32 5.31,-0.44 8.41,-0.38 2.72,0.28 5.1,0.71 7.38,1.31 2.13,0.63 3.91,1.26 5.45,1.9 2.71,1.13 4.25,1.78 4.25,1.78l2.31 0.98 0 51.23 -5.1 -1.82c0,0 -1.68,-0.6 -4.66,-1.76 -1.44,-0.56 -3.19,-1.21 -5.2,-1.9 -2.06,-0.61 -4.15,-1.07 -6.26,-1.32 -1.99,-0.15 -4.47,0.06 -7.2,0.62l-95.69 21.16c-4.14,0.95 -7.16,1.42 -9.76,1.55l-0.36 0.02z"/>
      <path id="path180" class="fil1" d="M969.21 455.68c0,0 -1.39,-0.61 -3.89,-1.71 -1.24,-0.5 -2.78,-1.07 -4.56,-1.71 -1.76,-0.58 -3.76,-1.2 -5.99,-1.71 -2.24,-0.53 -4.68,-0.84 -7.28,-0.9 -2.62,0.24 -5.41,0.78 -8.34,1.44 -23.42,5.17 -55.98,12.38 -80.21,17.74 -1.93,0.41 -3.81,0.83 -5.62,1.24 -1.82,0.33 -3.57,0.57 -5.26,0.75 -3.33,-0.12 -6.39,-0.84 -9.07,-1.98 -2.66,-1.55 -5,-3.15 -6.91,-4.61 -3.79,-3.36 -5.96,-5.6 -5.96,-5.6 0,0 -0.03,-1.35 -0.1,-3.6 -0.05,-2.15 -0.12,-5.07 -0.18,-8.2 -0.03,-1.72 -0.05,-3.62 -0.06,-5.66 0,-2.14 0.01,-4.39 0.01,-6.76 0.03,-2.21 0.07,-4.41 0.09,-6.5 0.03,-2 0.06,-3.88 0.09,-5.51 0.06,-3.23 0.1,-5.86 0.12,-7.73 0.04,-1.86 0.05,-2.95 0.05,-2.95 0,0 2.18,2.36 5.98,6.32 1.91,1.82 4.23,3.9 6.9,5.99 2.67,1.71 5.73,3.03 9.04,3.4 1.7,0.05 3.45,-0.13 5.26,-0.44 1.82,-0.37 3.69,-0.8 5.63,-1.22 24.22,-5.37 56.78,-12.55 80.2,-17.74 2.93,-0.65 5.72,-1.15 8.34,-1.25 2.63,-0.09 5.07,0.18 7.3,0.62 2.24,0.62 4.26,1.32 6.04,2.02 1.78,0.75 3.3,1.44 4.56,1.99 2.5,1.08 3.88,1.67 3.88,1.67 0,0 0,1.27 0,3.25 0,1.99 0,4.7 0,7.87 0,1.58 -0.01,3.27 -0.01,5.01 -0.02,1.73 -0.02,3.55 -0.03,5.33 -0.02,1.79 -0.02,3.61 -0.02,5.38l0 5.06 0 7.64 0 3.06z"/>
      <path id="path184" class="fil3" d="M969.21 497.42c0,0 -1.52,-0.65 -4.25,-1.73 -1.35,-0.55 -3.01,-1.12 -4.93,-1.69 -1.91,-0.53 -4.1,-1 -6.5,-1.31 -2.41,-0.12 -5.04,-0.05 -7.86,0.29 -2.81,0.35 -5.8,1 -8.94,1.69 -25.13,5.57 -59.56,13.18 -83.41,18.45 -1.82,0.41 -3.57,0.78 -5.26,1.15 -3.32,0.55 -6.34,0.85 -8.98,0.93 -2.63,-0.13 -4.89,-0.68 -6.69,-1.47 -3.56,-2.29 -5.57,-3.93 -5.57,-3.93 0,0 0.02,-1.2 0.02,-3.32 0.02,-2.09 0.05,-5.27 0.11,-9.6 0.04,-2.27 0.04,-4.65 0.04,-7.06 0,-2.38 0,-4.76 -0.04,-6.94 -0.03,-2.26 -0.09,-4.47 -0.14,-6.57 -0.06,-2.07 -0.13,-4.03 -0.2,-5.76 -0.14,-3.49 -0.28,-6.36 -0.36,-8.5 -0.08,-2.1 -0.12,-3.41 -0.12,-3.41 0,0 2.16,2.26 5.95,5.62 1.92,1.46 4.25,3.06 6.91,4.59 2.69,1.15 5.74,1.9 9.07,1.98 1.7,-0.18 3.45,-0.41 5.26,-0.76 1.82,-0.38 3.69,-0.82 5.63,-1.23 24.22,-5.36 56.78,-12.57 80.2,-17.74 2.93,-0.65 5.72,-1.18 8.34,-1.3 2.6,-0.09 5.04,0.23 7.28,0.71 2.23,0.54 4.23,1.16 5.99,1.75 1.78,0.63 3.32,1.21 4.56,1.71 2.5,1.1 3.89,1.7 3.89,1.7l0 3.29 0 7.92 0 9.59 0 9.62 0 7.97 0 3.36z"/>
      <path id="path188" class="fil0" d="M969.21 540.58c0,0 -1.66,-0.6 -4.59,-1.72 -1.49,-0.57 -3.28,-1.2 -5.34,-1.86 -2.08,-0.62 -4.44,-1.19 -7.03,-1.65 -2.6,0 -5.42,0.33 -8.43,0.88 -3.02,0.61 -6.22,1.29 -9.59,2.04 -26.84,5.95 -63.09,13.95 -86.17,19.05 -3.37,0.75 -6.44,1.34 -9.11,1.57 -2.62,-0.27 -4.85,-0.92 -6.66,-1.71 -3.46,-2.49 -5.37,-4.28 -5.37,-4.28 0,0 0.02,-1.49 0.02,-3.9 0,-2.36 0,-5.49 -0.06,-8.89 -0.01,-1.72 -0.01,-3.53 -0.01,-5.32 0,-1.84 0,-3.62 0,-5.37 -0.02,-1.68 -0.02,-3.3 -0.02,-4.83 -0.02,-1.51 -0.02,-2.96 -0.02,-4.38 -0.02,-2.82 -0.03,-5.38 -0.02,-7.3 0,-1.93 0,-3.11 0,-3.11 0,0 2.02,1.65 5.58,3.94 1.81,0.78 4.04,1.34 6.67,1.49 2.65,-0.12 5.67,-0.4 8.99,-0.93 1.7,-0.38 3.45,-0.75 5.26,-1.18 23.86,-5.27 58.27,-12.89 83.41,-18.46 3.14,-0.69 6.13,-1.35 8.94,-1.78 2.82,-0.24 5.46,-0.29 7.86,-0.2 2.4,0.33 4.59,0.79 6.5,1.29 1.93,0.61 3.59,1.18 4.94,1.71 2.73,1.09 4.25,1.72 4.25,1.72l0 3.65 0 8.59 0 10.16 0 9.93 0 7.76 0 3.09z"/>
      <path id="path192" class="fil1" d="M757.07 274.08l0 -85.74c16.65,7.13 28.32,23.65 28.32,42.87 0,19.27 -11.67,35.76 -28.32,42.87l0 0zm-37.33 -0.36c-11.69,-5.26 -20.82,-15.18 -25,-27.41l15.75 0 0 -31.61 -15.26 0c4.38,-11.57 13.26,-20.92 24.51,-25.98l0 85zm149.81 -58.86c-0.79,-0.03 -4.58,-0.16 -4.58,-0.16l-49.77 0c-6.32,-29.31 -29.06,-52.51 -58.13,-59.46l0 -40.3 -37.33 0 0 40.47c-28.71,7.18 -51.12,30.23 -57.36,59.29l-49.73 0 -1.34 0.08 -1.42 0c-41.9,0.71 -75.65,34.89 -75.65,76.95 0,37.73 27.15,69.09 62.98,75.68l0 -31.99c-18.5,-5.91 -31.89,-23.22 -31.89,-43.68 0,-25.34 20.55,-45.87 45.87,-45.87 0.05,0 0.2,0.44 0.2,0.44l0 160.03 32.7 0 0 -160.03 13.87 0 0 160.03 32.71 0 0 -113.54c8.45,6.63 18.33,11.55 29.06,14.24l0 123.9 37.33 0 0 -123.73c11.56,-2.76 22.12,-8.12 31.04,-15.38l0 114.51 32.72 0 0 -160.43 44.55 0c0,0 2.87,0 3.41,0.02 24.29,1.19 43.65,21.22 43.65,45.81 0,25.25 -20.44,45.76 -45.68,45.87l0 0.02 -32.72 0 0 68.71 32.72 0 0 -37.66c42.41,-0.1 76.75,-34.5 76.75,-76.95 0,-41.49 -32.85,-75.32 -73.96,-76.87l0 0zm0 0l0 0 0 0z"/>
      <path id="path196" class="fil1" d="M877.68 406.15c0,0 -1.09,-0.89 -3.19,-2.21 -2.08,-1.35 -5.17,-2.42 -9.11,-2.91 -1.97,0.23 -4.14,0.6 -6.53,1.03 -53.95,11.32 -209.06,43.91 -274.35,57.6 -2.6,0.56 -5.07,1.05 -7.39,1.49 -2.32,0.04 -4.47,-0.07 -6.44,-0.3 -2.01,-0.21 -3.82,-0.55 -5.45,-0.93 -3.29,-0.95 -5.84,-1.76 -7.59,-2.35 -1.73,-0.67 -2.64,-1.03 -2.64,-1.03l0 -10.33 0 -10.02 0 -5.84 0 -5.97 0 -9.53 0 -3.49c0,0 1.34,0.43 3.8,1.22 1.25,0.4 2.78,0.85 4.56,1.36 1.8,0.49 3.88,0.95 6.16,1.37 2.31,0.43 4.86,0.52 7.63,0.36 2.76,-0.16 5.75,-0.6 8.93,-1.27 3.19,-0.67 6.59,-1.37 10.16,-2.13 82,-17.24 257.71,-54.12 257.71,-54.12 0,0 1.49,-0.31 3.72,-0.77 2.24,-0.33 5.26,-0.25 8.3,0.41 3.07,1.18 6.14,3.1 8.46,5.22 2.32,2.67 3.88,4.69 3.88,4.69 0,0 -0.03,1.09 -0.04,2.85 -0.03,1.76 -0.08,4.04 -0.15,6.61 -0.03,1.26 -0.09,2.58 -0.12,3.94 -0.04,1.37 -0.09,2.82 -0.12,4.34 -0.05,1.54 -0.07,3.17 -0.1,4.82 -0.02,1.67 -0.03,3.37 -0.05,5.06 0,3.36 -0.01,6.15 -0.01,7.96 -0.03,1.85 -0.03,2.87 -0.03,2.87z"/>
      <path id="path200" class="fil2" d="M558.78 453.94l0.23 0.1c1.54,0.5 4.03,1.3 7.25,2.25 1.45,0.33 3.13,0.62 4.79,0.78 1.83,0.22 3.69,0.33 5.67,0.28 2.19,-0.43 4.54,-0.9 7,-1.4l274.35 -57.6c2.56,-0.48 4.82,-0.85 6.86,-1.1l0.46 -0.06 0.46 0.06c3.01,0.38 5.75,1.1 8.07,2.11l0.02 -4.04c0,-1.71 0,-3.43 0.03,-5.11 0.03,-1.68 0.05,-3.31 0.1,-4.85l0.24 -8.32c0.07,-2.52 0.12,-4.8 0.16,-6.53l0 -1.52c-0.65,-0.82 -1.66,-2.04 -2.92,-3.48 -1.62,-1.47 -4.13,-3.06 -6.68,-4.07 -2.32,-0.46 -4.79,-0.59 -6.68,-0.32l-3.48 0.73 -267.85 56.26c-3.55,0.75 -6.65,1.18 -9.52,1.34 -3.17,0.2 -5.97,0.06 -8.53,-0.42 -2.32,-0.41 -4.49,-0.9 -6.45,-1.44 -1.34,-0.37 -2.54,-0.72 -3.58,-1.03l0 37.38zm17.47 11.03c-2.08,0 -4.1,-0.12 -6.04,-0.35 -1.92,-0.19 -3.92,-0.53 -5.88,-0.99 -3.52,-1.01 -6.14,-1.86 -7.9,-2.47l-5.24 -2.06 -0.01 -52.91 8.77 2.77c1.2,0.4 2.67,0.84 4.4,1.29 1.7,0.46 3.66,0.92 5.83,1.31 1.93,0.36 4.19,0.48 6.72,0.31 2.5,-0.15 5.24,-0.53 8.41,-1.19l271.59 -57.05c3.05,-0.42 6.56,-0.26 9.84,0.45l0.59 0.16c3.5,1.35 7.02,3.54 9.66,5.99 2.71,3.06 4.32,5.15 4.32,5.15l0.79 1.04 -0.04 4.17c-0.04,1.78 -0.09,4.1 -0.15,6.67l-0.25 8.28c-0.05,1.52 -0.06,3.14 -0.09,4.77 -0.02,1.67 -0.03,3.36 -0.06,5.03l-0.09 18.7 -6.11 -4.93c-0.09,-0.06 -1.06,-0.83 -2.84,-1.96 -1.01,-0.64 -3.22,-1.76 -7.09,-2.3 -1.8,0.23 -3.74,0.57 -5.86,0.95l-274.24 57.57c-2.65,0.55 -5.12,1.06 -7.43,1.51l-0.7 0.07c-0.31,0.02 -0.62,0.02 -0.9,0.02z"/>
      <path id="path204" class="fil3" d="M877.62 451.7c0,0 -1.09,-0.9 -3.17,-2.36 -2.09,-1.28 -5.14,-2.54 -9.07,-3.13 -1.97,0.12 -4.14,0.38 -6.53,0.81 -2.38,0.49 -4.96,1.04 -7.73,1.63 -59.23,12.43 -201.7,42.35 -264.97,55.64 -2.74,0.58 -5.34,1.12 -7.8,1.52 -2.43,0.38 -4.7,0.44 -6.81,0.36 -2.09,-0.21 -4,-0.48 -5.74,-0.8 -3.47,-0.77 -6.18,-1.61 -8.01,-2.3 -1.85,-0.75 -2.82,-1.19 -2.82,-1.19l0 -3.73 0 -8.62 0 -10.31 0 -5.42 0 -5.43 0 -8.64 0 -3.18c0,0 0.92,0.36 2.65,1.02 1.75,0.59 4.3,1.41 7.58,2.35 1.63,0.38 3.44,0.72 5.44,0.96 2,0.21 4.14,0.33 6.45,0.27 2.32,-0.44 4.79,-0.92 7.4,-1.48 65.28,-13.71 220.39,-46.28 274.35,-57.6 2.38,-0.43 4.55,-0.78 6.54,-1.05 3.93,0.51 7.02,1.58 9.11,2.76 2.09,1.48 3.18,2.39 3.18,2.39 0,0 -0.03,3.85 -0.05,9.34 0,1.37 0,3 -0.01,4.78 0,1.82 -0.02,3.86 -0.02,5.99 0,2.16 0,4.35 -0.02,6.47 0,2.16 0,4.22 0.02,6.07 0,3.9 0,7.15 0.02,9.34 0.01,2.27 0.01,3.54 0.01,3.54z"/>
      <path id="path208" class="fil2" d="M558.78 499.36c0.15,0.06 0.32,0.13 0.46,0.19 1.37,0.5 3.89,1.34 7.38,2.11 1.51,0.26 3.32,0.52 5.32,0.74 1.94,0.06 3.92,-0.06 5.85,-0.35 2.37,-0.37 4.9,-0.91 7.59,-1.48 63.25,-13.28 205.75,-43.19 264.98,-55.62 2.75,-0.59 5.34,-1.15 7.73,-1.65 2.5,-0.44 4.85,-0.75 7.07,-0.87l0.41 -0.02 0.39 0.05c3.23,0.49 5.85,1.37 7.84,2.25 0,-1.69 -0.01,-3.69 -0.01,-5.89l0 -6.07 0.11 -24.73c-0.45,-0.31 -0.97,-0.7 -1.59,-1.12 -0.79,-0.45 -3.14,-1.53 -6.93,-2.05 -1.78,0.23 -3.74,0.58 -5.86,0.94l-274.24 57.59c-2.65,0.54 -5.12,1.05 -7.45,1.5l-0.68 0.07c-2.41,0.03 -4.73,-0.07 -6.91,-0.31 -2.01,-0.23 -4,-0.57 -5.91,-1.03 -2.19,-0.64 -4.05,-1.19 -5.55,-1.67l0 37.42zm14.33 10.63c-0.56,0 -1.12,-0.02 -1.7,-0.03 -2.42,-0.23 -4.46,-0.54 -6.27,-0.85 -4.09,-0.9 -6.96,-1.84 -8.67,-2.5 -2.03,-0.81 -3.03,-1.26 -3.03,-1.26l-2.26 -0.99 0 -53.43 7.83 3.11c1.54,0.51 4.03,1.31 7.25,2.24 1.44,0.32 3.12,0.62 4.82,0.81 1.76,0.2 3.66,0.33 5.64,0.27 2.2,-0.43 4.54,-0.9 7.01,-1.41l274.34 -57.62c2.57,-0.46 4.81,-0.81 6.85,-1.07l0.46 -0.07 0.47 0.07c5.08,0.61 8.53,2.1 10.5,3.21 2.56,1.78 3.71,2.72 3.71,2.72l1.42 1.15 -0.11 28.45 0.01 6c0,3.91 0,7.15 0.03,9.35l0.01 11.57 -6.2 -5.05c-0.06,-0.05 -1.09,-0.88 -2.97,-2.21 -0.94,-0.56 -3.36,-1.81 -7.04,-2.43 -1.82,0.13 -3.73,0.38 -5.68,0.74 -2.29,0.47 -4.85,1.02 -7.62,1.6 -59.23,12.45 -201.71,42.36 -264.96,55.64 -2.83,0.59 -5.49,1.15 -7.99,1.55 -1.9,0.31 -3.83,0.44 -5.85,0.44z"/>
      <path id="path212" class="fil0" d="M877.53 501.4c0,0 -0.93,-4.52 -3.02,-6.13 -2.09,-1.44 -5.2,-2.97 -9.13,-3.86 -1.98,-0.04 -4.15,0.16 -6.53,0.54 -2.39,0.52 -4.97,1.06 -7.72,1.64 -59.23,12.44 -201.71,42.35 -264.97,55.65 -2.76,0.56 -5.36,1.12 -7.79,1.57 -2.44,0.31 -4.73,0.43 -6.82,0.43 -2.09,-0.12 -4.01,-0.37 -5.76,-0.7 -3.44,-0.95 -6.16,-1.86 -8.01,-2.73 -1.85,-0.81 -2.81,-1.32 -2.81,-1.32l0 -3.3 0 -8.63 0 -5.6 0 -5.72 0 -5.3 0 -4.72 0 -7.8 0 -3.53c0,0 0.98,0.44 2.83,1.19 1.82,0.67 4.54,1.52 7.98,2.29 1.75,0.33 3.68,0.6 5.77,0.81 2.09,0.09 4.37,0.03 6.81,-0.36 2.44,-0.4 5.04,-0.95 7.79,-1.52 63.26,-13.3 205.74,-43.22 264.98,-55.66 2.75,-0.58 5.32,-1.12 7.71,-1.61 2.38,-0.44 4.55,-0.7 6.54,-0.8 3.92,0.57 6.97,1.83 9.06,3.07 2.08,1.5 3.17,2.4 3.17,2.4 0,0 0.01,1.23 0.03,3.32 0.03,2.1 0.04,5.04 0.06,8.64 0.02,1.75 0.02,3.66 0.02,5.62 0.01,1.95 0.01,3.97 0.01,5.92 0,1.95 0,3.82 0,5.58l0 5.36 0 8.31c0,2.08 -0.2,6.95 -0.2,6.95z"/>
      <path id="path216" class="fil2" d="M558.78 544.09c0.18,0.08 0.36,0.18 0.57,0.26 1.24,0.57 3.5,1.45 7.44,2.51 1.37,0.27 3.13,0.46 4.98,0.58 1.82,-0.03 3.97,-0.15 6.13,-0.4 1.69,-0.33 3.72,-0.73 5.84,-1.19l1.63 -0.33c63.26,-13.31 205.76,-43.21 264.97,-55.63l7.72 -1.65c2.85,-0.46 5.2,-0.66 7.36,-0.64l0.82 0.1c3.17,0.73 5.73,1.78 7.69,2.82l-0.09 -36.95c-0.44,-0.35 -0.98,-0.73 -1.63,-1.21 -1.15,-0.65 -3.57,-1.78 -7.01,-2.32 -1.77,0.12 -3.68,0.36 -5.67,0.72l-272.58 57.26c-2.83,0.58 -5.49,1.14 -7.99,1.55 -2.44,0.38 -4.91,0.51 -7.57,0.4 -2.4,-0.24 -4.44,-0.51 -6.29,-0.87 -2.58,-0.57 -4.69,-1.16 -6.32,-1.67l0 36.66zm12.77 10.94c-2.4,-0.14 -4.51,-0.39 -6.48,-0.78 -3.78,-1 -6.75,-2.01 -8.88,-2.99 -1.92,-0.87 -2.96,-1.4 -2.96,-1.4l-2.03 -1.06 -0.02 -52.71 5.32 2.32c0.03,0.02 0.97,0.41 2.72,1.13 1.41,0.52 3.92,1.34 7.4,2.12 1.51,0.28 3.32,0.56 5.3,0.72 1.94,0.09 3.92,-0.01 5.85,-0.31 2.38,-0.39 4.91,-0.93 7.61,-1.48l272.69 -57.28c2.55,-0.47 4.91,-0.76 7.11,-0.88l0.38 -0.01 0.37 0.04c4.85,0.71 8.35,2.34 10.44,3.57 2.5,1.79 3.66,2.74 3.66,2.74l1.37 1.11 0.13 44.58c0,2.11 -0.19,7.1 -0.19,7.1l-7.52 0.61c-0.32,-1.53 -1.13,-3.45 -1.6,-3.87 -1.04,-0.71 -3.54,-2.18 -7.3,-3.1 -1.6,0.01 -3.43,0.17 -5.46,0.5l-7.55 1.62c-59.23,12.41 -201.71,42.34 -264.96,55.62l-1.66 0.34c-2.18,0.48 -4.26,0.9 -6.23,1.28 -2.72,0.31 -5.17,0.47 -7.51,0.47z"/>
      <path id="path220" class="fil1" d="M877.68 406.15c0,0 -1.09,-0.89 -3.19,-2.21 -2.08,-1.35 -5.17,-2.42 -9.11,-2.91 -1.97,0.23 -4.14,0.6 -6.53,1.03 -53.95,11.32 -209.06,43.91 -274.35,57.6 -2.6,0.56 -5.07,1.05 -7.39,1.49 -2.32,0.04 -4.47,-0.07 -6.44,-0.3 -2.01,-0.21 -3.82,-0.55 -5.45,-0.93 -3.29,-0.95 -5.84,-1.76 -7.59,-2.35 -1.73,-0.67 -2.64,-1.03 -2.64,-1.03l0 -10.33 0 -10.02 0 -5.84 0 -5.97 0 -9.53 0 -3.49c0,0 1.34,0.43 3.8,1.22 1.25,0.4 2.78,0.85 4.56,1.36 1.8,0.49 3.88,0.95 6.16,1.37 2.31,0.43 4.86,0.52 7.63,0.36 2.76,-0.16 5.75,-0.6 8.93,-1.27 3.19,-0.67 6.59,-1.37 10.16,-2.13 82,-17.24 257.71,-54.12 257.71,-54.12 0,0 1.49,-0.31 3.72,-0.77 2.24,-0.33 5.26,-0.25 8.3,0.41 3.07,1.18 6.14,3.1 8.46,5.22 2.32,2.67 3.88,4.69 3.88,4.69 0,0 -0.03,1.09 -0.04,2.85 -0.03,1.76 -0.08,4.04 -0.15,6.61 -0.03,1.26 -0.09,2.58 -0.12,3.94 -0.04,1.37 -0.09,2.82 -0.12,4.34 -0.05,1.54 -0.07,3.17 -0.1,4.82 -0.02,1.67 -0.03,3.37 -0.05,5.06 0,3.36 -0.01,6.15 -0.01,7.96 -0.03,1.85 -0.03,2.87 -0.03,2.87z"/>
      <path id="path224" class="fil3" d="M877.62 451.7c0,0 -1.09,-0.9 -3.17,-2.36 -2.09,-1.28 -5.14,-2.54 -9.07,-3.13 -1.97,0.12 -4.14,0.38 -6.53,0.81 -2.38,0.49 -4.96,1.04 -7.73,1.63 -59.23,12.43 -201.7,42.35 -264.97,55.64 -2.74,0.58 -5.34,1.12 -7.8,1.52 -2.43,0.38 -4.7,0.44 -6.81,0.36 -2.09,-0.21 -4,-0.48 -5.74,-0.8 -3.47,-0.77 -6.18,-1.61 -8.01,-2.3 -1.85,-0.75 -2.82,-1.19 -2.82,-1.19l0 -3.73 0 -8.62 0 -10.31 0 -5.42 0 -5.43 0 -8.64 0 -3.18c0,0 0.92,0.36 2.65,1.02 1.75,0.59 4.3,1.41 7.58,2.35 1.63,0.38 3.44,0.72 5.44,0.96 2,0.21 4.14,0.33 6.45,0.27 2.32,-0.44 4.79,-0.92 7.4,-1.48 65.28,-13.71 220.39,-46.28 274.35,-57.6 2.38,-0.43 4.55,-0.78 6.54,-1.05 3.93,0.51 7.02,1.58 9.11,2.76 2.09,1.48 3.18,2.39 3.18,2.39 0,0 -0.03,3.85 -0.05,9.34 0,1.37 0,3 -0.01,4.78 0,1.82 -0.02,3.86 -0.02,5.99 0,2.16 0,4.35 -0.02,6.47 0,2.16 0,4.22 0.02,6.07 0,3.9 0,7.15 0.02,9.34 0.01,2.27 0.01,3.54 0.01,3.54z"/>
      <path id="path228" class="fil0" d="M877.73 497.8c0,0 -1.12,-0.94 -3.22,-2.52 -2.09,-1.45 -5.19,-2.98 -9.13,-3.89 -1.97,-0.03 -4.14,0.18 -6.53,0.57 -2.39,0.51 -4.96,1.05 -7.71,1.63 -59.24,12.44 -201.72,42.35 -264.99,55.62 -2.74,0.59 -5.34,1.15 -7.8,1.59 -2.43,0.31 -4.7,0.43 -6.81,0.43 -2.09,-0.12 -4,-0.37 -5.74,-0.69 -3.47,-0.95 -6.18,-1.88 -8.01,-2.73 -1.85,-0.81 -2.82,-1.33 -2.82,-1.33l0 -3.31 0 -8.6 0 -5.63 0 -5.7 0 -5.31 0 -4.72 0 -7.79 0 -3.53c0,0 0.98,0.42 2.83,1.17 1.81,0.68 4.52,1.54 7.99,2.3 1.75,0.31 3.66,0.61 5.75,0.82 2.11,0.08 4.38,0.02 6.81,-0.38 2.45,-0.39 5.05,-0.93 7.79,-1.51 63.28,-13.29 205.76,-43.21 264.99,-55.65 2.75,-0.58 5.33,-1.13 7.72,-1.61 2.38,-0.46 4.55,-0.71 6.53,-0.81 3.92,0.57 6.97,1.84 9.06,3.06 2.08,1.52 3.17,2.42 3.17,2.42 0,0 0.02,1.23 0.04,3.31 0.02,2.12 0.03,5.05 0.05,8.66 0.02,1.75 0.02,3.66 0.02,5.62 0.01,1.94 0.01,3.96 0.01,5.9 0,1.96 0,3.84 0,5.6l0 5.35 0 8.32 0 3.34z"/>
      <path id="path232" class="fil0" d="M738.61 471.66l0 4.12 -0.2 0 0 -3.9c0.09,-0.1 0.12,-0.12 0.2,-0.22z"/>
      <path id="path236" class="fil0" d="M738.61 479.86l0 5.26c-0.07,-0.01 -0.13,-0.06 -0.21,-0.06l0 -5.14c0.08,-0.03 0.14,-0.04 0.21,-0.06z"/>
      <path id="path240" class="fil2" d="M842.92 497.52l22.25 -4.84 16.3 7.8 -0.25 6.81c0,0.02 0.36,5.44 -11.57,12.35 -6.87,4 -34.29,17.68 -38.38,22.26 -4.1,4.61 -5.8,13.71 -5.8,13.71l0.85 -23.31 -1.95 -30.71 18.55 -4.07z"/>
      <path id="path244" class="fil0" d="M848.6 315.14l0 1.71 -0.08 0 0 -1.63c0.04,-0.04 0.05,-0.05 0.08,-0.08z"/>
      <path id="path248" class="fil0" d="M848.6 318.56l0 2.17c-0.03,0 -0.06,-0.02 -0.08,-0.02l0 -2.14c0.02,-0.01 0.05,-0.01 0.08,-0.01z"/>
     </g>
    </g>
    <polygon class="fil4" points="-397.35,94.45 1897.41,94.45 1897.41,1027.9 -397.35,1027.9 "/>
    <polygon class="fil4" points="-397.35,94.45 1897.41,94.45 1897.41,1027.9 -397.35,1027.9 "/>
    <polygon class="fil4" points="-397.35,94.45 1897.41,94.45 1897.41,1027.9 -397.35,1027.9 "/>
   </g>
  </g>
 </g>
</svg>
