<?xml version="1.0" encoding="UTF-8"?>
<!DOCTYPE svg PUBLIC "-//W3C//DTD SVG 1.1//EN" "http://www.w3.org/Graphics/SVG/1.1/DTD/svg11.dtd">
<!-- Creator: CorelDRAW 2019 (64-Bit Оценочная версия) -->
<svg xmlns="http://www.w3.org/2000/svg" xml:space="preserve" width="30.5mm" height="13mm" version="1.1" style="shape-rendering:geometricPrecision; text-rendering:geometricPrecision; image-rendering:optimizeQuality; fill-rule:evenodd; clip-rule:evenodd"
viewBox="0 0 3050 1300"
 xmlns:xlink="http://www.w3.org/1999/xlink"
 xmlns:dc="http://purl.org/dc/elements/1.1/"
 xmlns:cc="http://creativecommons.org/ns#"
 xmlns:rdf="http://www.w3.org/1999/02/22-rdf-syntax-ns#"
 xmlns:svg="http://www.w3.org/2000/svg">
 <defs>
  <style type="text/css">
   <![CDATA[
    .fil5 {fill:none}
    .fil4 {fill:#0071BB;fill-rule:nonzero}
    .fil0 {fill:#1D1D1B;fill-rule:nonzero}
    .fil3 {fill:#231F20;fill-rule:nonzero}
    .fil1 {fill:#EC1C24;fill-rule:nonzero}
    .fil2 {fill:white;fill-rule:nonzero}
   ]]>
  </style>
     <clipPath id="id0">
      <path d="M34.52 48.68l2966.01 0 0 1206.5 -2966.01 0 0 -1206.5z"/>
     </clipPath>
 </defs>
 <g id="Слой_x0020_1">
  <metadata id="CorelCorpID_0Corel-Layer"/>
  <g id="g10">
   <g id="g24">
    <g>
    </g>
    <g>
    </g>
    <g style="clip-path:url(#id0)">
     <g>
      <path id="path34" class="fil0" d="M912.62 791.71c-2.5,-9.14 -7.48,-26.81 -33.37,-26.81 -15.17,0 -37.99,10.79 -37.99,53.34 0,26.95 11.43,52.03 37.99,52.03 17.39,0 29.63,-10.55 33.37,-29l31.33 0.01c-6.24,32.77 -27.59,55.6 -65.33,55.6 -40.04,0 -68.69,-27.16 -68.69,-79.06 0,-52.67 30.3,-79.41 69.11,-79.41 44.98,0 63.25,31.11 64.91,53.3l-31.33 0z"/>
      <polygon id="path38" class="fil0" points="997.87,847.3 998.08,847.3 1058.05,742.28 1093.29,742.28 1093.29,892.92 1061.97,892.91 1061.97,785.67 1061.58,785.67 1000.16,892.91 966.54,892.91 966.54,742.27 997.87,742.28 "/>
      <path id="path42" class="fil0" d="M1117.15 817.6c0,70.56 52.25,79.27 72.18,79.27 19.9,0 72.18,-8.71 72.18,-79.27 0,-70.48 -52.28,-79.2 -72.18,-79.2 -19.93,0 -72.18,8.72 -72.18,79.2l0 0zm31.33 0c0,-42.12 23.85,-52.7 40.85,-52.7 17,0 40.89,10.58 40.89,52.7 0,42.12 -23.88,52.67 -40.89,52.67 -17,0 -40.85,-10.55 -40.85,-52.67z"/>
      <polygon id="path46" class="fil0" points="1316.69,799.38 1375.4,799.38 1375.4,742.3 1406.72,742.3 1406.72,892.9 1375.4,892.9 1375.4,825.31 1316.69,825.31 1316.69,892.9 1285.37,892.9 1285.37,742.3 1316.7,742.3 "/>
      <polygon id="path50" class="fil0" points="1467.11,799.38 1525.77,799.38 1525.77,742.3 1557.13,742.3 1557.13,892.9 1525.77,892.9 1525.77,825.31 1467.11,825.31 1467.11,892.9 1435.78,892.9 1435.78,742.3 1467.11,742.3 "/>
      <path id="path52" class="fil0" d="M1765.8 742.29l-31.32 0 0 150.64 31.32 0 0 -150.64zm-148.34 0l-31.29 0 0 150.64 70.09 0c30.09,0 51.86,-16.4 51.86,-46.04 0,-29.88 -22.4,-47.52 -51.43,-47.52l-39.23 0 0 -57.08zm0 83.01l35.52 0c14.08,0 23.81,6.63 23.81,19.86 0,12.49 -8.71,21.84 -23.81,21.84l-35.52 0 0 -41.7z"/>
      <path id="path56" class="fil0" d="M1858.09 713.08c17.64,0 19.3,-8.93 20.35,-14.53l13.9 0c-0.63,8.5 -6.24,30.48 -34.25,30.48 -27.98,0 -33.58,-21.98 -34.22,-30.48l13.9 0c1.02,5.6 2.72,14.53 20.32,14.53l0 0zm-31.93 134.23l0.39 0 59.76 -105.02 35.28 0 0 150.64 -31.33 0 0 -107.24 -0.42 -0.01 -61.42 107.24 -33.58 0.01 0 -150.64 31.32 0 0 105.02z"/>
      <path id="path60" class="fil0" d="M2141.04 817.6c0,28.22 -21.35,33.8 -37.36,33.8l0 -68.41c16.01,0 37.36,6.21 37.36,34.61l0 0zm-37.36 -75.32l-31.29 0 0 15.38c-26.74,0 -68.69,14.11 -68.69,59.94 0,45.86 41.95,59.16 68.69,59.16l0 16.16 31.29 0 0 -16.16c26.78,0 68.69,-13.3 68.69,-59.16 0,-45.83 -41.91,-59.94 -68.69,-59.94l0 -15.38zm-68.65 75.32c0,-28.4 21.41,-34.61 37.36,-34.61l0 68.4c-15.95,0 -37.36,-5.57 -37.36,-33.8l0 0.01zm0 0l0 0 0 0z"/>
      <path id="path64" class="fil0" d="M2191.02 817.6c0,70.56 52.25,79.27 72.22,79.27 19.89,0 72.17,-8.71 72.17,-79.27 0,-70.48 -52.28,-79.2 -72.17,-79.2 -19.97,0 -72.22,8.72 -72.22,79.2l0 0zm31.36 0c0,-42.12 23.81,-52.7 40.85,-52.7 16.97,0 40.85,10.58 40.85,52.7 0,42.12 -23.88,52.67 -40.85,52.67 -17.04,0 -40.85,-10.55 -40.85,-52.67z"/>
      <polygon id="path68" class="fil0" points="2390.6,799.38 2449.3,799.38 2449.3,742.3 2480.63,742.3 2480.63,892.9 2449.3,892.9 2449.3,825.31 2390.6,825.31 2390.6,892.9 2359.27,892.9 2359.27,742.3 2390.6,742.3 "/>
      <path id="path72" class="fil0" d="M2531.02 742.29l0 44.84c0,38.35 -3.1,58.49 -17,79.87l-13.48 0 0 57.68 29.24 0 0 -31.75 88.59 0 0 31.75 29.24 0 0 -57.68 -14.74 0 0 -124.71 -101.85 0zm14.08 124.71c12.91,-21.38 15.38,-38.98 15.38,-77.79l0 -20.95 41.06 0 0 98.74 -56.44 0z"/>
      <path id="path76" class="fil0" d="M88.04 1155.95l36.09 0c40.43,0 47.94,-34.61 47.94,-48.08 0,-29.7 -17.43,-48.15 -46.5,-48.15l-68.86 -0.01 0 150.6 31.33 0 0 -54.36zm0 -70.28l25.08 0c19.51,0 27.62,6.17 27.62,20.92 0,9.35 -2.72,23.46 -23.46,23.46l-29.24 0 0 -44.38z"/>
      <path id="path80" class="fil0" d="M190.72 1135c0,70.56 52.28,79.24 72.18,79.24 19.93,0 72.21,-8.68 72.21,-79.24 0,-70.52 -52.28,-79.23 -72.21,-79.23 -19.9,0 -72.18,8.71 -72.18,79.23l0 0zm31.33 0c0,-42.09 23.85,-52.67 40.85,-52.67 17,0 40.89,10.58 40.89,52.67 0,42.12 -23.88,52.7 -40.89,52.7 -17,0 -40.85,-10.58 -40.85,-52.7z"/>
      <path id="path84" class="fil0" d="M456.44 1109.06c-2.47,-9.14 -7.44,-26.74 -33.41,-26.74 -15.1,0 -37.92,10.79 -37.92,53.34 0,26.95 11.39,52.03 37.92,52.03 17.43,0 29.67,-10.55 33.41,-29.07l31.33 0c-6.24,32.84 -27.59,55.6 -65.33,55.6 -40.04,0 -68.65,-27.16 -68.65,-78.99 0,-52.7 30.27,-79.48 69.04,-79.48 45.05,0 63.29,31.11 64.95,53.3l-31.34 0.01z"/>
      <path id="path88" class="fil0" d="M607.87 1109.06c-2.47,-9.14 -7.44,-26.74 -33.41,-26.74 -15.13,0 -37.92,10.79 -37.92,53.34 0,26.95 11.39,52.03 37.92,52.03 17.43,0 29.7,-10.55 33.41,-29.07l31.33 0c-6.24,32.84 -27.59,55.6 -65.33,55.6 -40.04,0 -68.65,-27.16 -68.65,-78.99 0,-52.7 30.27,-79.48 69.04,-79.48 45.05,0 63.29,31.11 64.95,53.3l-31.34 0.01z"/>
      <polygon id="path92" class="fil0" points="693.14,1164.66 693.35,1164.66 753.29,1059.71 788.56,1059.71 788.56,1210.31 757.24,1210.31 757.24,1103.03 756.81,1103.03 695.43,1210.31 661.81,1210.31 661.81,1059.71 693.14,1059.71 "/>
      <path id="path96" class="fil0" d="M848.92 1059.73l-31.32 0 0 150.6 33.58 0 61.42 -107.28 0.42 0 0 107.28 31.33 0 0 -150.6 -35.28 0 -59.76 104.95 -0.39 0 0 -104.95zm11.61 -43.75l-13.9 0c0.63,8.5 6.21,30.48 34.22,30.48 28.01,0 33.62,-21.98 34.22,-30.48l-13.9 0c-1.02,5.61 -2.68,14.47 -20.32,14.47 -17.64,0 -19.3,-8.85 -20.32,-14.46l0 -0.01zm0 0l0 0 0 0z"/>
      <path id="path100" class="fil0" d="M1070.87 1109.06c-2.47,-9.14 -7.48,-26.74 -33.41,-26.74 -15.13,0 -37.96,10.79 -37.96,53.34 0,26.95 11.39,52.03 37.96,52.03 17.43,0 29.67,-10.55 33.41,-29.07l31.33 0c-6.24,32.84 -27.62,55.6 -65.33,55.6 -40.08,0 -68.69,-27.16 -68.69,-78.99 0,-52.7 30.3,-79.48 69.07,-79.48 45.01,0 63.29,31.11 64.95,53.3l-31.33 0.01z"/>
      <polygon id="path104" class="fil0" points="1156.1,1120.91 1213.57,1059.74 1254.21,1059.74 1192.83,1121.33 1257.77,1210.3 1217.28,1210.3 1170.85,1144.16 1156.1,1159.29 1156.1,1210.3 1124.78,1210.3 1124.78,1059.74 1156.1,1059.74 "/>
      <path id="path108" class="fil0" d="M1263.56 1135c0,70.56 52.28,79.24 72.21,79.24 19.9,0 72.18,-8.68 72.18,-79.24 0,-70.52 -52.28,-79.23 -72.18,-79.23 -19.93,0 -72.21,8.71 -72.21,79.23l0 0zm31.36 0c0,-42.09 23.81,-52.67 40.85,-52.67 17,0 40.85,10.58 40.85,52.67 0,42.12 -23.85,52.7 -40.85,52.7 -17.04,0 -40.85,-10.58 -40.85,-52.7z"/>
      <path id="path112" class="fil0" d="M1495.07 1030.44c17.64,0 19.29,-8.85 20.32,-14.46l13.9 0c-0.6,8.5 -6.21,30.48 -34.22,30.48 -28.01,0 -33.58,-21.98 -34.22,-30.48l13.9 0c1.02,5.61 2.68,14.46 20.32,14.46l0 0zm-31.93 134.23l0.39 0 59.76 -104.95 35.28 0 0 150.6 -31.33 0 0 -107.28 -0.46 0 -61.38 107.28 -33.59 0 0 -150.6 31.33 0 0 104.95z"/>
      <path id="path116" class="fil0" d="M1778.01 1135c0,28.26 -21.34,33.83 -37.36,33.83l0 -68.47c16.02,0 37.36,6.21 37.36,34.64l0 0zm-37.36 -75.28l-31.29 0 0 15.34c-26.77,0 -68.68,14.08 -68.68,59.94 0,45.86 41.91,59.16 68.69,59.16l0 16.16 31.28 0 0 -16.16c26.78,0 68.69,-13.3 68.69,-59.16 0,-45.86 -41.91,-59.94 -68.69,-59.94l0 -15.34zm-68.65 75.28c0,-28.43 21.38,-34.64 37.36,-34.64l0 68.47c-15.98,0 -37.36,-5.57 -37.36,-33.83z"/>
      <polygon id="path120" class="fil0" points="1944.38,1059.73 1944.38,1085.66 1864.51,1085.65 1864.51,1116.73 1937.74,1116.73 1937.74,1142.7 1864.51,1142.7 1864.51,1184.36 1947.69,1184.36 1947.69,1210.33 1833.22,1210.33 1833.22,1059.73 "/>
      <path id="path124" class="fil0" d="M1992.92 1059.73l0 44.8c0,38.35 -3.1,58.53 -16.97,79.83l-13.51 0 0 57.64 29.24 0.01 0 -31.68 88.59 0 0 31.68 29.24 0 0 -57.64 -14.75 -0.01 0 -124.64 -101.84 0.01zm14.11 124.63c12.88,-21.31 15.35,-38.98 15.35,-77.79l0 -20.92 41.06 0 0 98.71 -56.41 0z"/>
      <polygon id="path128" class="fil0" points="2240.59,1059.73 2240.59,1085.66 2160.72,1085.65 2160.72,1116.73 2233.99,1116.73 2233.99,1142.7 2160.72,1142.7 2160.72,1184.36 2243.9,1184.36 2243.9,1210.33 2129.43,1210.33 2129.43,1059.73 "/>
      <path id="path132" class="fil0" d="M2299.08 1155.95l36.09 0c40.46,0 47.91,-34.61 47.91,-48.08 0,-29.7 -17.39,-48.15 -46.46,-48.15l-68.86 -0.01 0 150.6 31.32 0 0 -54.36zm0 -70.28l25.12 0c19.51,0 27.59,6.17 27.59,20.92 0,9.35 -2.72,23.46 -23.46,23.46l-29.25 0 0 -44.38z"/>
      <path id="path136" class="fil0" d="M2439.51 1059.73l-53.52 150.6 32.98 0 10.58 -31.11 55.39 -0.01 9.74 31.12 34.01 0 -52.88 -150.6 -36.3 0zm17.67 34.04l0.39 0 20.53 59.44 -40.25 0 19.33 -59.44z"/>
      <polygon id="path140" class="fil0" points="2578.93,1184.37 2637.59,1184.37 2637.59,1059.73 2668.96,1059.73 2668.96,1184.37 2683.88,1184.37 2683.88,1242.26 2654.63,1242.26 2654.63,1210.3 2547.57,1210.3 2547.57,1059.73 2578.93,1059.73 "/>
      <polygon id="path144" class="fil0" points="2734.1,1164.66 2734.31,1164.66 2794.21,1059.71 2829.49,1059.71 2829.49,1210.31 2798.16,1210.31 2798.16,1103.03 2797.77,1103.03 2736.32,1210.31 2702.74,1210.31 2702.74,1059.71 2734.1,1059.71 "/>
      <polygon id="path148" class="fil0" points="2889.85,1164.66 2890.06,1164.66 2950,1059.71 2985.27,1059.71 2985.27,1210.31 2953.95,1210.31 2953.95,1103.03 2953.52,1103.03 2892.14,1210.31 2858.52,1210.31 2858.52,1059.71 2889.85,1059.71 "/>
      <path id="path152" class="fil1" d="M1672.72 185.94c0,0 -6.36,-0.21 -6.36,-0.21l-50.89 0c-11.71,-33.02 -37.67,-59.5 -70.48,-71.9l0 -57.03 -84.98 0.01 0 57.41c-32.33,12.54 -57.9,38.86 -69.51,71.51l-51.14 0c0,0 -1.27,0.08 -1.77,0.12l-1.53 0c-63.85,1.08 -115.81,53.93 -115.81,117.82 0,56.89 40.56,105.6 96.45,115.86 0,0 2.43,0.47 3.25,0.61l0 50.02 139.23 0.01 0 -0.05 0.83 0 0 31.85 84.98 0 0 -31.85 3.4 0.05 138.37 0 0 -50.3c56.1,-8.99 99.22,-57.64 99.22,-116.19 0,-63.6 -49.75,-115.29 -113.26,-117.74z"/>
      <path id="path156" class="fil2" d="M1800.82 515.8c0,0 -1.8,-0.8 -5.03,-2.2 -1.6,-0.63 -3.59,-1.39 -5.89,-2.21 -2.28,-0.81 -4.87,-1.63 -7.75,-2.37 -2.89,-0.61 -6.04,-0.99 -9.41,-1.1 -3.38,0.34 -6.99,1.05 -10.78,1.88 -30.28,6.69 -72.36,16.01 -103.67,22.93 -2.49,0.53 -4.92,1.08 -7.26,1.54 -2.35,0.47 -4.61,0.76 -6.8,1 -4.33,-0.11 -8.28,-1.08 -11.74,-2.6 -3.46,-2 -6.46,-4.09 -8.95,-5.93 -4.92,-4.45 -7.73,-7.35 -7.73,-7.35 0,0 -0.04,-1.77 -0.11,-4.56 -0.06,-2.83 -0.15,-6.51 -0.23,-10.9 -0.03,-2.25 -0.03,-4.77 -0.03,-7.47 0,-2.68 0,-5.57 0.05,-8.55 0.02,-3 0.06,-5.77 0.1,-8.41 0.05,-2.47 0.09,-4.79 0.13,-6.81 0.07,-4.06 0.11,-7.44 0.15,-9.82 0.02,-2.41 0.04,-3.84 0.04,-3.84 0,0 2.81,3.01 7.73,8.04 2.47,2.32 5.47,4.99 8.91,7.45 3.47,2.45 7.39,4.14 11.7,4.88 2.17,-0.06 4.43,-0.32 6.77,-0.78 2.35,-0.47 4.77,-1.01 7.27,-1.55 31.31,-6.92 73.39,-16.23 103.67,-22.91 3.77,-0.87 7.39,-1.52 10.77,-1.75 3.41,0.06 6.56,0.4 9.45,0.93 2.88,0.78 5.49,1.64 7.8,2.53 2.3,0.95 4.26,1.81 5.88,2.51 3.24,1.4 5.01,2.13 5.01,2.13 0,0 0.02,1.67 0.02,4.37l0.01 10.16c0,2.05 -0.02,4.23 -0.02,6.49 0,2.23 -0.02,4.56 -0.04,6.88 -0.02,2.32 -0.02,4.64 -0.02,6.91 0,2.29 0,4.49 0,6.63l0 9.94 0 3.91z"/>
      <path id="path160" class="fil3" d="M1634.72 528.27c2.95,1.27 6.1,1.96 9.33,2.09 1.94,-0.21 3.95,-0.48 6.04,-0.91 1.79,-0.35 3.69,-0.75 5.61,-1.18l105.22 -23.27c3.67,-0.82 7.58,-1.62 11.36,-1.96l0.29 -0.02 0.3 0c3.46,0.1 6.9,0.48 10.26,1.16 3.19,0.84 5.94,1.69 8.44,2.57 1.59,0.6 3.04,1.15 4.34,1.65l0.08 -44.63c-0.59,-0.24 -1.29,-0.53 -2.05,-0.87 -1.98,-0.87 -3.78,-1.65 -5.81,-2.47 -2.28,-0.89 -4.73,-1.69 -7.22,-2.34 -2.36,-0.43 -5.26,-0.7 -8.25,-0.76 -2.28,0.17 -5.49,0.69 -9.61,1.62l-105.51 23.31c-1.9,0.43 -3.74,0.8 -5.56,1.19 -2.68,0.5 -5.23,0.8 -7.61,0.86l-0.47 0 -0.49 -0.08c-4.93,-0.85 -9.54,-2.77 -13.7,-5.7 -2.94,-2.12 -5.83,-4.52 -9.06,-7.54l-0.15 8.59c-0.04,2.64 -0.08,5.39 -0.1,8.36 -0.04,2.96 -0.04,5.83 -0.04,8.51 0,2.68 0,5.17 0.02,7.45l0.3 13.39c1.24,1.25 3.35,3.25 6.16,5.79 2.3,1.73 5.06,3.56 7.88,5.19l0 0zm9.71 11.91l-0.32 -0.02c-4.71,-0.09 -9.29,-1.12 -13.58,-2.98l-0.51 -0.27c-3.23,-1.88 -6.41,-3.99 -9.43,-6.27 -5.41,-4.86 -8.3,-7.82 -8.3,-7.82l-1.35 -1.39 -0.38 -17.4c-0.02,-2.32 -0.02,-4.85 -0.02,-7.58 0,-2.7 0,-5.59 0.04,-8.61 0.02,-3 0.06,-5.79 0.11,-8.43l0.59 -32.62 8.23 8.89c0.05,0 2.81,3 7.65,7.96 1.77,1.67 4.73,4.37 8.25,6.89 2.81,1.96 5.89,3.31 9.21,3.94 1.71,-0.08 3.55,-0.29 5.49,-0.68 1.71,-0.33 3.5,-0.72 5.34,-1.12l1.8 -0.37 103.67 -22.93c4.6,-1.04 8.27,-1.63 11.48,-1.86 3.97,0.06 7.41,0.4 10.67,1.01 3.21,0.85 6,1.75 8.68,2.77 2.21,0.9 4.07,1.73 5.63,2.4 3.59,1.54 5.34,2.26 5.37,2.26l3.04 1.25 0.04 17.84 -0.11 48.34 -6.92 -3.11c0,0 -1.77,-0.79 -4.94,-2.13 -1.46,-0.59 -3.38,-1.34 -5.62,-2.11 -2.22,-0.83 -4.71,-1.57 -7.35,-2.27 -2.45,-0.5 -5.21,-0.84 -8,-0.93 -3.13,0.32 -6.59,1.04 -9.86,1.78l-105.26 23.25c-1.96,0.44 -3.88,0.84 -5.76,1.22 -2.51,0.51 -4.95,0.83 -7.27,1.06l-0.31 0.04z"/>
      <path id="path164" class="fil4" d="M1800.82 569.53c0,0 -1.96,-0.82 -5.49,-2.25 -1.75,-0.74 -3.88,-1.5 -6.37,-2.24 -2.47,-0.64 -5.3,-1.2 -8.41,-1.52 -3.1,-0.09 -6.5,0 -10.15,0.29 -3.64,0.59 -7.5,1.41 -11.55,2.32 -32.5,7.2 -76.99,17.04 -107.82,23.84 -2.34,0.53 -4.6,1.01 -6.77,1.37 -4.31,0.79 -8.2,1.12 -11.61,1.12 -3.4,-0.29 -6.29,-0.95 -8.66,-1.92 -4.6,-2.85 -7.17,-4.89 -7.17,-4.89 0,0 0,-1.61 0.02,-4.44 0,-1.39 0.02,-3.17 0.07,-5.3 0.02,-2.15 0.04,-4.68 0.08,-7.56 0.02,-3.01 0.04,-6.14 0.02,-9.14 0,-3.07 -0.04,-5.96 -0.06,-8.74 -0.09,-2.96 -0.15,-5.76 -0.25,-8.44 -0.09,-2.6 -0.17,-5.09 -0.28,-7.27 -0.19,-4.39 -0.33,-8.13 -0.44,-10.89 -0.09,-2.81 -0.15,-4.48 -0.15,-4.48 0,0 2.81,2.89 7.72,7.35 2.49,1.85 5.49,3.95 8.98,5.85 3.44,1.6 7.39,2.59 11.72,2.68 2.19,-0.24 4.45,-0.51 6.8,-1 2.34,-0.46 4.77,-1.01 7.26,-1.54 31.32,-6.92 73.4,-16.24 103.67,-22.93 3.78,-0.84 7.39,-1.56 10.77,-1.9 3.36,0.1 6.51,0.48 9.4,1.1 2.88,0.76 5.47,1.56 7.75,2.38 2.3,0.8 4.29,1.56 5.89,2.22 3.23,1.39 5.03,2.19 5.03,2.19l0 4.19 0 10.3 0 12.52 0 12.27 0 10.2 0 4.26z"/>
      <path id="path168" class="fil3" d="M1626.21 586.15c1.9,0.72 4.2,1.2 6.84,1.41 2.89,-0.02 6.51,-0.36 10.35,-1.03 2.08,-0.38 4.28,-0.82 6.56,-1.35l107.81 -23.84c3.87,-0.86 7.99,-1.77 11.87,-2.36 4.01,-0.36 7.6,-0.47 11.02,-0.38 3.55,0.38 6.63,0.93 9.55,1.69 2.2,0.67 4.07,1.31 5.7,1.92l0 -43.22c-0.61,-0.26 -1.29,-0.55 -2.09,-0.91 -1.4,-0.53 -3.32,-1.27 -5.56,-2.07 -2.19,-0.78 -4.64,-1.56 -7.36,-2.28 -2.39,-0.49 -5.16,-0.81 -7.98,-0.91 -3.38,0.36 -7.04,1.12 -9.87,1.75l-105.31 23.31c-1.97,0.4 -3.87,0.82 -5.73,1.21 -2.51,0.51 -4.94,0.82 -7.26,1.05l-0.32 0.04 -0.29 -0.02c-4.84,-0.1 -9.44,-1.14 -13.71,-3.14 -3.23,-1.76 -6.2,-3.68 -9.27,-5.96 0.04,1.1 0.11,2.26 0.15,3.49 0.08,2.17 0.19,4.69 0.28,7.3 0.1,2.68 0.16,5.51 0.23,8.51 0.06,2.83 0.08,5.74 0.1,8.85 0,3 -0.02,6.15 -0.04,9.19l-0.14 14.75c1.05,0.78 2.57,1.8 4.47,3l0 0zm6.44 11.21c-4.24,-0.31 -7.64,-1.09 -10.51,-2.28l-0.74 -0.35c-4.79,-2.98 -7.54,-5.16 -7.64,-5.26l-1.88 -1.45 0.19 -19.74c0.04,-2.96 0.04,-6.06 0.04,-9.04 0,-3.04 -0.04,-5.91 -0.08,-8.7 -0.09,-2.89 -0.15,-5.68 -0.25,-8.32 -0.09,-2.59 -0.17,-5.07 -0.28,-7.26 -0.19,-4.4 -0.33,-8.16 -0.44,-10.9l-0.59 -17.16 8.87 9.08c0.05,0.05 2.75,2.83 7.5,7.1 2.56,1.92 5.28,3.69 8.03,5.2 2.65,1.2 5.83,1.98 9.18,2.06 1.94,-0.18 3.95,-0.46 6.02,-0.9 1.81,-0.34 3.67,-0.76 5.57,-1.16l40.77 -9.02 64.49 -14.25c3.19,-0.72 7.37,-1.61 11.36,-2.01l0.32 0 0.31 0c3.51,0.08 6.97,0.51 10.27,1.16 3.25,0.87 5.99,1.71 8.42,2.6 2.32,0.83 4.35,1.6 6,2.26 3.42,1.47 5.23,2.28 5.23,2.28l2.92 1.33 0 64.36 -6.87 -2.94c-0.01,0 -1.94,-0.84 -5.38,-2.25 -1.63,-0.66 -3.61,-1.36 -5.91,-2.06 -2.31,-0.61 -4.88,-1.05 -7.54,-1.34 -2.7,-0.05 -5.93,0.04 -9.23,0.31 -3.25,0.53 -7.18,1.37 -10.89,2.19l-107.81 23.84c-2.41,0.57 -4.75,1.06 -6.97,1.46 -4.42,0.78 -8.62,1.16 -12.48,1.16z"/>
      <path id="path172" class="fil1" d="M1800.82 625.57c0,0 -2.15,-0.77 -5.94,-2.21 -1.92,-0.76 -4.24,-1.63 -6.9,-2.53 -2.68,-0.83 -5.74,-1.55 -9.08,-1.95 -3.36,-0.25 -7.01,0.07 -10.9,0.87 -3.9,0.89 -8.04,1.8 -12.39,2.74 -34.69,7.67 -81.55,18.03 -111.38,24.62 -4.35,0.97 -8.32,1.73 -11.78,1.88 -3.36,-0.46 -6.25,-1.37 -8.57,-2.49 -4.45,-3.2 -6.95,-5.57 -6.95,-5.57l0 -4.96c0,-2.92 -0.04,-6.87 -0.07,-11.28 -0.02,-2.19 -0.02,-4.49 -0.02,-6.81 0,-2.26 0,-4.52 0,-6.72 -0.02,-2.09 -0.04,-4.13 -0.04,-6.1 0,-1.93 0,-3.87 0,-5.7 -0.03,-3.69 -0.04,-7.09 -0.03,-9.59 0,-2.56 0.03,-4.12 0.03,-4.12 0,0 2.57,2.07 7.17,4.92 2.37,0.97 5.28,1.63 8.66,1.92 3.42,-0.02 7.31,-0.36 11.61,-1.12 2.17,-0.37 4.44,-0.86 6.78,-1.39 30.83,-6.8 75.31,-16.66 107.81,-23.82 4.05,-0.91 7.92,-1.75 11.55,-2.19 3.65,-0.45 7.05,-0.49 10.16,-0.43 3.11,0.3 5.94,0.86 8.41,1.52 2.49,0.74 4.63,1.48 6.38,2.22 3.52,1.46 5.49,2.3 5.49,2.3l0 4.45 0 11.13 0 6.82 0 6.68 0 12.87 0 10.02 0 4.02z"/>
      <path id="path176" class="fil3" d="M1626.39 642.26c1.81,0.83 3.99,1.44 6.29,1.81 2.68,-0.16 5.95,-0.71 10.47,-1.75l123.78 -27.36c4.51,-0.93 8.63,-1.27 12.35,-0.97 3.46,0.42 6.79,1.12 10.13,2.15 2.53,0.87 4.69,1.67 6.48,2.34l0 -45.65c-0.67,-0.29 -1.5,-0.61 -2.43,-1.01 -1.68,-0.69 -3.65,-1.37 -5.91,-2.07 -2.32,-0.59 -4.89,-1.05 -7.51,-1.33 -3.17,-0.08 -6.15,0.07 -9.06,0.4 -3.34,0.43 -6.99,1.2 -11.06,2.11l-107.84 23.84c-2.41,0.53 -4.73,1.04 -6.94,1.44 -4.42,0.76 -8.6,1.16 -12.48,1.18 -4.23,-0.34 -7.6,-1.1 -10.52,-2.26l-0.46 -0.21c0.02,1.37 0.02,2.88 0.02,4.4l0.07 25.33c0.04,4.44 0.06,8.39 0.08,11.3l-0.02 2.74c1.03,0.89 2.57,2.13 4.56,3.57l0 0zm5.84 11.68l-0.46 -0.07c-3.68,-0.55 -7.05,-1.52 -10.03,-2.96l-0.72 -0.42c-4.69,-3.38 -7.37,-5.89 -7.48,-6.02l-1.54 -1.43 0 -7.08c0,-2.91 -0.03,-6.81 -0.07,-11.25l-0.06 -25.36c0,-3.67 -0.03,-7.09 0,-9.6l0.07 -14.19 7.9 6.27c0.04,0.02 2.32,1.83 6.35,4.32 1.93,0.75 4.23,1.21 6.85,1.44 2.91,-0.04 6.54,-0.38 10.39,-1.05 2.07,-0.36 4.26,-0.85 6.54,-1.36l107.81 -23.81c4.33,-0.99 8.24,-1.82 12.02,-2.26 3.4,-0.42 6.86,-0.57 10.87,-0.49 3.51,0.36 6.59,0.91 9.54,1.69 2.75,0.81 5.05,1.63 7.04,2.45 3.5,1.46 5.5,2.3 5.5,2.3l2.98 1.27 0 66.22 -6.59 -2.35c0,0 -2.17,-0.78 -6.03,-2.28 -1.86,-0.72 -4.12,-1.56 -6.72,-2.45 -2.66,-0.8 -5.36,-1.39 -8.09,-1.71 -2.57,-0.19 -5.78,0.07 -9.31,0.8l-123.68 27.35c-5.35,1.23 -9.25,1.84 -12.61,2l-0.47 0.03z"/>
      <path id="path180" class="fil2" d="M1800.82 515.57c0,0 -1.8,-0.78 -5.03,-2.2 -1.6,-0.65 -3.59,-1.39 -5.89,-2.21 -2.28,-0.76 -4.87,-1.56 -7.75,-2.22 -2.89,-0.68 -6.04,-1.08 -9.41,-1.16 -3.38,0.31 -6.99,1.01 -10.78,1.86 -30.27,6.69 -72.35,16 -103.67,22.93 -2.49,0.53 -4.92,1.08 -7.26,1.6 -2.35,0.43 -4.61,0.74 -6.8,0.97 -4.31,-0.15 -8.26,-1.08 -11.72,-2.55 -3.44,-2.01 -6.46,-4.08 -8.93,-5.96 -4.9,-4.35 -7.71,-7.24 -7.71,-7.24 0,0 -0.04,-1.75 -0.13,-4.65 -0.06,-2.78 -0.15,-6.56 -0.23,-10.61 -0.04,-2.22 -0.07,-4.67 -0.08,-7.31 0,-2.77 0.02,-5.68 0.02,-8.74 0.04,-2.85 0.08,-5.7 0.11,-8.4 0.04,-2.58 0.08,-5.01 0.12,-7.12 0.07,-4.18 0.13,-7.58 0.15,-9.99 0.05,-2.41 0.07,-3.82 0.07,-3.82 0,0 2.81,3.06 7.73,8.17 2.47,2.36 5.47,5.04 8.91,7.75 3.46,2.21 7.41,3.91 11.69,4.39 2.2,0.07 4.46,-0.17 6.8,-0.57 2.35,-0.48 4.77,-1.03 7.27,-1.58 31.31,-6.93 73.4,-16.22 103.67,-22.92 3.78,-0.84 7.39,-1.49 10.77,-1.62 3.4,-0.11 6.56,0.23 9.44,0.8 2.89,0.8 5.51,1.71 7.81,2.61 2.3,0.97 4.26,1.86 5.89,2.58 3.23,1.39 5.02,2.15 5.02,2.15 0,0 0,1.65 0,4.2 0,2.58 0,6.08 0,10.18 0,2.04 -0.02,4.22 -0.02,6.47 -0.02,2.24 -0.02,4.59 -0.04,6.89 -0.02,2.32 -0.02,4.67 -0.02,6.95l0 6.54 0 9.88 0 3.95z"/>
      <path id="path184" class="fil4" d="M1800.82 569.52c0,0 -1.97,-0.83 -5.49,-2.23 -1.75,-0.71 -3.89,-1.45 -6.38,-2.19 -2.47,-0.68 -5.3,-1.29 -8.4,-1.69 -3.11,-0.15 -6.51,-0.07 -10.16,0.38 -3.63,0.45 -7.49,1.29 -11.55,2.18 -32.49,7.2 -76.98,17.04 -107.81,23.85 -2.35,0.53 -4.61,1.01 -6.8,1.48 -4.29,0.72 -8.2,1.1 -11.61,1.2 -3.4,-0.16 -6.32,-0.88 -8.64,-1.89 -4.6,-2.96 -7.2,-5.09 -7.2,-5.09 0,0 0.02,-1.54 0.02,-4.29 0.03,-2.7 0.07,-6.81 0.15,-12.41 0.05,-2.93 0.05,-6.01 0.05,-9.12 0,-3.08 0,-6.15 -0.05,-8.97 -0.04,-2.92 -0.12,-5.77 -0.19,-8.49 -0.08,-2.68 -0.17,-5.21 -0.25,-7.45 -0.19,-4.5 -0.36,-8.21 -0.47,-10.98 -0.1,-2.72 -0.16,-4.41 -0.16,-4.41 0,0 2.8,2.92 7.7,7.27 2.48,1.88 5.49,3.95 8.93,5.93 3.47,1.49 7.41,2.45 11.72,2.55 2.2,-0.23 4.46,-0.52 6.8,-0.97 2.35,-0.5 4.77,-1.07 7.27,-1.6 31.31,-6.92 73.4,-16.24 103.67,-22.93 3.78,-0.84 7.39,-1.52 10.77,-1.67 3.37,-0.12 6.52,0.29 9.41,0.91 2.88,0.7 5.47,1.5 7.75,2.26 2.3,0.82 4.29,1.57 5.89,2.22 3.23,1.42 5.03,2.19 5.03,2.19l0 4.25 0 10.24 0 12.39 0 12.44 0 10.3 0 4.34z"/>
      <path id="path188" class="fil1" d="M1800.82 625.31c0,0 -2.15,-0.78 -5.94,-2.22 -1.92,-0.74 -4.24,-1.56 -6.9,-2.41 -2.68,-0.8 -5.74,-1.53 -9.08,-2.13 -3.36,0 -7.01,0.42 -10.9,1.14 -3.9,0.78 -8.04,1.67 -12.39,2.64 -34.69,7.68 -81.55,18.03 -111.38,24.62 -4.35,0.97 -8.32,1.73 -11.78,2.03 -3.38,-0.36 -6.27,-1.19 -8.6,-2.22 -4.47,-3.21 -6.94,-5.53 -6.94,-5.53 0,0 0.02,-1.92 0.02,-5.04 0,-3.05 0,-7.1 -0.07,-11.49 -0.02,-2.22 -0.02,-4.56 -0.02,-6.87 0,-2.38 0,-4.68 0,-6.94 -0.02,-2.18 -0.02,-4.27 -0.02,-6.25 -0.03,-1.95 -0.03,-3.83 -0.03,-5.66 -0.02,-3.65 -0.04,-6.95 -0.02,-9.44 0,-2.49 0,-4.01 0,-4.01 0,0 2.6,2.13 7.2,5.09 2.34,1.01 5.23,1.73 8.63,1.92 3.42,-0.15 7.33,-0.51 11.62,-1.2 2.19,-0.49 4.45,-0.97 6.8,-1.52 30.83,-6.82 75.31,-16.66 107.81,-23.86 4.05,-0.89 7.92,-1.75 11.55,-2.3 3.65,-0.32 7.05,-0.38 10.16,-0.26 3.1,0.43 5.93,1.02 8.4,1.67 2.5,0.78 4.64,1.52 6.39,2.21 3.52,1.4 5.49,2.22 5.49,2.22l0 4.71 0 11.11 0 13.13 0 12.84 0 10.03 0 3.99z"/>
      <path id="path192" class="fil2" d="M1526.62 280.85l0 -110.81c21.53,9.21 36.61,30.56 36.61,55.41 0,24.9 -15.08,46.22 -36.61,55.4l0 0zm-48.25 -0.46c-15.1,-6.8 -26.9,-19.62 -32.31,-35.43l20.36 0 0 -40.86 -19.72 0c5.65,-14.95 17.14,-27.04 31.67,-33.57l0 109.86zm193.64 -76.08c-1.03,-0.04 -5.93,-0.21 -5.93,-0.21l-64.32 0c-8.17,-37.88 -37.56,-67.86 -75.14,-76.85l0 -52.08 -48.25 0 0 52.3c-37.1,9.28 -66.07,39.07 -74.13,76.63l-64.28 0 -1.73 0.11 -1.84 0c-54.16,0.92 -97.78,45.09 -97.78,99.46 0,48.76 35.09,89.3 81.4,97.81l0 -41.34c-23.9,-7.64 -41.21,-30.02 -41.21,-56.46 0,-32.75 26.56,-59.29 59.29,-59.29 0.06,0 0.25,0.57 0.25,0.57l0 206.84 42.27 0 0 -206.84 17.92 0 0 206.84 42.28 0 0 -146.75c10.93,8.57 23.69,14.93 37.56,18.41l0 160.14 48.25 0 0 -159.92c14.95,-3.57 28.59,-10.5 40.13,-19.89l0 148.01 42.28 0 0 -207.35 57.59 0c0,0 3.7,0 4.4,0.02 31.4,1.54 56.42,27.43 56.42,59.21 0,32.64 -26.42,59.14 -59.04,59.29l0 0.02 -42.29 0 0 88.81 42.29 0 0 -48.67c54.82,-0.13 99.2,-44.6 99.2,-99.46 0,-53.63 -42.46,-97.36 -95.59,-99.36l0 0zm0 0l0 0 0 0z"/>
      <path id="path196" class="fil2" d="M1682.52 451.56c0,0 -1.41,-1.16 -4.13,-2.86 -2.69,-1.74 -6.68,-3.13 -11.77,-3.76 -2.55,0.29 -5.36,0.78 -8.44,1.33 -69.74,14.63 -270.22,56.76 -354.6,74.45 -3.37,0.72 -6.56,1.35 -9.56,1.92 -3,0.06 -5.77,-0.08 -8.32,-0.38 -2.6,-0.27 -4.94,-0.72 -7.05,-1.2 -4.25,-1.23 -7.54,-2.28 -9.8,-3.04 -2.24,-0.87 -3.42,-1.33 -3.42,-1.33l0 -13.35 0 -12.96 0 -7.54 0 -7.72 0 -12.32 0 -4.51c0,0 1.73,0.55 4.92,1.58 1.61,0.51 3.59,1.1 5.89,1.76 2.32,0.63 5.01,1.22 7.96,1.77 2.98,0.55 6.28,0.67 9.86,0.46 3.57,-0.21 7.43,-0.78 11.55,-1.64 4.12,-0.87 8.51,-1.77 13.12,-2.75 105.99,-22.28 333.1,-69.96 333.1,-69.96 0,0 1.92,-0.4 4.81,-0.99 2.89,-0.42 6.8,-0.32 10.73,0.53 3.96,1.52 7.93,4.01 10.93,6.75 3,3.45 5.01,6.06 5.01,6.06 0,0 -0.03,1.41 -0.05,3.68 -0.04,2.28 -0.1,5.23 -0.19,8.55 -0.04,1.62 -0.11,3.33 -0.15,5.09 -0.06,1.77 -0.12,3.65 -0.16,5.61 -0.07,1.99 -0.09,4.1 -0.13,6.23 -0.02,2.16 -0.04,4.35 -0.07,6.54 0,4.34 -0.01,7.95 -0.01,10.29 -0.03,2.39 -0.03,3.71 -0.03,3.71z"/>
      <path id="path200" class="fil3" d="M1270.33 513.32l0.3 0.13c1.99,0.65 5.21,1.68 9.37,2.91 1.88,0.43 4.05,0.8 6.19,1.01 2.36,0.28 4.77,0.43 7.33,0.36 2.83,-0.55 5.87,-1.16 9.05,-1.81l354.6 -74.45c3.31,-0.61 6.23,-1.1 8.87,-1.42l0.59 -0.08 0.59 0.08c3.89,0.49 7.44,1.42 10.44,2.73l0.02 -5.22c0,-2.21 0,-4.43 0.04,-6.6 0.04,-2.18 0.07,-4.29 0.13,-6.28l0.31 -10.75c0.09,-3.25 0.15,-6.2 0.2,-8.44l0.01 -1.96c-0.84,-1.06 -2.15,-2.64 -3.78,-4.5 -2.09,-1.9 -5.34,-3.95 -8.63,-5.26 -3,-0.59 -6.19,-0.76 -8.64,-0.42l-4.5 0.95 -346.19 72.72c-4.59,0.97 -8.6,1.52 -12.31,1.73 -4.1,0.25 -7.71,0.08 -11.02,-0.55 -3,-0.53 -5.81,-1.16 -8.34,-1.86 -1.73,-0.47 -3.28,-0.93 -4.63,-1.33l0 48.31zm22.58 14.26c-2.69,0 -5.3,-0.15 -7.8,-0.45 -2.49,-0.25 -5.07,-0.69 -7.6,-1.28 -4.56,-1.31 -7.94,-2.41 -10.22,-3.19l-6.77 -2.66 -0.01 -68.39 11.34 3.58c1.54,0.51 3.45,1.08 5.68,1.67 2.2,0.59 4.73,1.19 7.54,1.69 2.49,0.47 5.41,0.62 8.68,0.4 3.23,-0.19 6.77,-0.68 10.87,-1.54l351.03 -73.73c3.95,-0.55 8.49,-0.34 12.73,0.57l0.76 0.21c4.52,1.75 9.07,4.58 12.48,7.75 3.51,3.95 5.58,6.65 5.58,6.65l1.03 1.35 -0.06 5.39c-0.04,2.3 -0.11,5.29 -0.19,8.61l-0.32 10.71c-0.06,1.96 -0.08,4.05 -0.12,6.16 -0.03,2.16 -0.04,4.35 -0.07,6.5l-0.12 24.18 -7.9 -6.38c-0.11,-0.08 -1.37,-1.07 -3.67,-2.53 -1.31,-0.83 -4.16,-2.28 -9.17,-2.98 -2.32,0.3 -4.83,0.74 -7.57,1.23l-354.46 74.42c-3.42,0.7 -6.61,1.36 -9.6,1.95l-0.9 0.08c-0.4,0.03 -0.8,0.03 -1.17,0.03z"/>
      <path id="path204" class="fil4" d="M1682.44 510.43c0,0 -1.41,-1.16 -4.1,-3.05 -2.7,-1.66 -6.65,-3.28 -11.72,-4.04 -2.55,0.15 -5.36,0.49 -8.44,1.04 -3.08,0.63 -6.42,1.35 -9.99,2.11 -76.56,16.07 -260.7,54.73 -342.48,71.92 -3.55,0.74 -6.91,1.44 -10.08,1.96 -3.14,0.49 -6.08,0.57 -8.8,0.47 -2.71,-0.28 -5.17,-0.63 -7.43,-1.04 -4.48,-0.99 -7.98,-2.08 -10.35,-2.97 -2.39,-0.97 -3.64,-1.54 -3.64,-1.54l0 -4.82 0 -11.15 0 -13.32 0 -7.01 0 -7.01 0 -11.17 0 -4.11c0,0 1.19,0.46 3.42,1.32 2.26,0.76 5.56,1.82 9.8,3.04 2.11,0.49 4.45,0.93 7.03,1.23 2.58,0.28 5.35,0.43 8.34,0.36 3,-0.57 6.19,-1.2 9.56,-1.92 84.38,-17.72 284.86,-59.82 354.6,-74.45 3.08,-0.55 5.89,-1.01 8.45,-1.35 5.08,0.65 9.08,2.04 11.78,3.56 2.7,1.92 4.11,3.09 4.11,3.09 0,0 -0.04,4.98 -0.06,12.07 0,1.77 0,3.88 -0.02,6.18 0,2.35 -0.02,4.99 -0.02,7.75 0,2.79 0,5.62 -0.03,8.36 0,2.79 0,5.45 0.03,7.84 0,5.04 0,9.25 0.02,12.08 0.02,2.93 0.02,4.57 0.02,4.57z"/>
      <path id="path208" class="fil3" d="M1270.33 572.03c0.2,0.08 0.41,0.17 0.6,0.25 1.77,0.65 5.02,1.73 9.54,2.72 1.95,0.34 4.29,0.68 6.87,0.96 2.51,0.08 5.07,-0.07 7.56,-0.45 3.06,-0.48 6.33,-1.18 9.81,-1.92 81.76,-17.16 265.94,-55.82 342.49,-71.89 3.56,-0.76 6.9,-1.48 9.99,-2.13 3.23,-0.57 6.27,-0.96 9.14,-1.12l0.53 -0.03 0.51 0.07c4.17,0.63 7.56,1.77 10.13,2.91 0,-2.19 -0.02,-4.77 -0.02,-7.62l0 -7.84 0.15 -31.96c-0.58,-0.41 -1.26,-0.91 -2.06,-1.46 -1.02,-0.57 -4.06,-1.97 -8.96,-2.64 -2.3,0.3 -4.83,0.74 -7.57,1.21l-354.46 74.44c-3.42,0.7 -6.61,1.35 -9.63,1.94l-0.87 0.09c-3.12,0.04 -6.12,-0.09 -8.94,-0.4 -2.6,-0.3 -5.16,-0.74 -7.63,-1.33 -2.83,-0.83 -5.24,-1.55 -7.18,-2.16l0 48.36zm18.52 13.74c-0.72,0 -1.45,-0.02 -2.19,-0.04 -3.13,-0.29 -5.77,-0.69 -8.11,-1.1 -5.28,-1.16 -9,-2.38 -11.21,-3.23 -2.62,-1.05 -3.91,-1.63 -3.91,-1.63l-2.92 -1.28 0 -69.05 10.12 4.02c1.99,0.65 5.21,1.69 9.37,2.89 1.86,0.42 4.03,0.8 6.23,1.05 2.28,0.26 4.73,0.43 7.29,0.34 2.84,-0.55 5.87,-1.16 9.06,-1.82l354.59 -74.47c3.32,-0.59 6.21,-1.05 8.85,-1.39l0.59 -0.08 0.61 0.08c6.57,0.8 11.03,2.72 13.58,4.16 3.3,2.3 4.79,3.51 4.79,3.51l1.84 1.49 -0.14 36.77 0.01 7.76c0,5.05 0,9.23 0.03,12.08l0.02 14.95 -8.01 -6.52c-0.08,-0.07 -1.41,-1.14 -3.84,-2.86 -1.22,-0.73 -4.35,-2.34 -9.1,-3.14 -2.36,0.17 -4.83,0.49 -7.35,0.95 -2.95,0.61 -6.27,1.33 -9.84,2.07 -76.56,16.09 -260.72,54.75 -342.47,71.92 -3.66,0.76 -7.1,1.49 -10.33,2 -2.45,0.4 -4.94,0.57 -7.56,0.57z"/>
      <path id="path212" class="fil1" d="M1682.32 574.67c0,0 -1.2,-5.85 -3.9,-7.92 -2.71,-1.86 -6.72,-3.84 -11.81,-5 -2.55,-0.05 -5.36,0.21 -8.44,0.71 -3.08,0.66 -6.42,1.36 -9.97,2.12 -76.56,16.07 -260.72,54.73 -342.48,71.92 -3.57,0.73 -6.93,1.45 -10.07,2.03 -3.15,0.4 -6.11,0.56 -8.81,0.56 -2.7,-0.16 -5.19,-0.48 -7.45,-0.91 -4.45,-1.22 -7.96,-2.4 -10.35,-3.52 -2.39,-1.05 -3.63,-1.71 -3.63,-1.71l0 -4.27 0 -11.15 0 -7.24 0 -7.39 0 -6.85 0 -6.1 0 -10.09 0 -4.56c0,0 1.27,0.57 3.65,1.54 2.36,0.87 5.87,1.96 10.32,2.96 2.26,0.42 4.76,0.78 7.46,1.05 2.7,0.11 5.65,0.03 8.8,-0.47 3.15,-0.52 6.51,-1.22 10.07,-1.96 81.76,-17.19 265.92,-55.86 342.49,-71.94 3.55,-0.76 6.88,-1.45 9.96,-2.08 3.08,-0.57 5.89,-0.91 8.45,-1.04 5.07,0.74 9.01,2.36 11.72,3.97 2.68,1.94 4.09,3.1 4.09,3.1 0,0 0.02,1.59 0.04,4.29 0.04,2.72 0.06,6.52 0.08,11.17 0.02,2.26 0.02,4.73 0.02,7.26 0.02,2.52 0.02,5.13 0.02,7.65 0,2.53 0,4.94 0,7.22l0 6.93 0 10.74c0,2.68 -0.26,8.98 -0.26,8.98z"/>
      <path id="path216" class="fil3" d="M1270.33 629.85c0.24,0.1 0.47,0.23 0.74,0.33 1.6,0.74 4.52,1.88 9.61,3.25 1.77,0.34 4.05,0.59 6.44,0.74 2.36,-0.03 5.13,-0.19 7.93,-0.51 2.18,-0.43 4.8,-0.95 7.54,-1.54l2.11 -0.43c81.76,-17.2 265.95,-55.85 342.48,-71.9l9.97 -2.13c3.69,-0.59 6.73,-0.85 9.52,-0.83l1.06 0.13c4.09,0.95 7.41,2.3 9.94,3.65l-0.12 -47.76c-0.57,-0.45 -1.27,-0.95 -2.11,-1.57 -1.48,-0.84 -4.61,-2.3 -9.06,-2.99 -2.28,0.15 -4.75,0.46 -7.33,0.93l-352.31 74c-3.66,0.76 -7.1,1.48 -10.33,2.01 -3.15,0.49 -6.34,0.66 -9.78,0.51 -3.1,-0.3 -5.74,-0.66 -8.13,-1.12 -3.33,-0.74 -6.06,-1.5 -8.17,-2.16l0 47.39zm16.51 14.14c-3.1,-0.19 -5.83,-0.51 -8.38,-1.01 -4.88,-1.29 -8.72,-2.6 -11.47,-3.87 -2.49,-1.12 -3.83,-1.81 -3.83,-1.81l-2.62 -1.37 -0.03 -68.12 6.87 3c0.04,0.02 1.26,0.52 3.52,1.46 1.82,0.67 5.07,1.73 9.57,2.74 1.94,0.36 4.28,0.72 6.84,0.93 2.51,0.11 5.07,-0.02 7.56,-0.4 3.08,-0.51 6.35,-1.21 9.84,-1.92l352.46 -74.03c3.3,-0.61 6.34,-0.99 9.19,-1.14l0.49 -0.02 0.48 0.06c6.27,0.91 10.79,3.02 13.49,4.61 3.23,2.32 4.73,3.55 4.73,3.55l1.77 1.43 0.17 57.62c0,2.73 -0.25,9.17 -0.25,9.17l-9.71 0.79c-0.42,-1.98 -1.46,-4.45 -2.07,-5 -1.35,-0.91 -4.58,-2.81 -9.44,-4.01 -2.07,0.02 -4.43,0.23 -7.05,0.65l-9.76 2.1c-76.56,16.04 -260.72,54.72 -342.47,71.89l-2.14 0.44c-2.82,0.61 -5.51,1.16 -8.06,1.65 -3.51,0.4 -6.68,0.61 -9.7,0.61z"/>
      <path id="path220" class="fil2" d="M1682.52 451.56c0,0 -1.41,-1.16 -4.13,-2.86 -2.69,-1.74 -6.68,-3.13 -11.77,-3.76 -2.55,0.29 -5.36,0.78 -8.44,1.33 -69.74,14.63 -270.22,56.76 -354.6,74.45 -3.37,0.72 -6.56,1.35 -9.56,1.92 -3,0.06 -5.77,-0.08 -8.32,-0.38 -2.6,-0.27 -4.94,-0.72 -7.05,-1.2 -4.25,-1.23 -7.54,-2.28 -9.8,-3.04 -2.24,-0.87 -3.42,-1.33 -3.42,-1.33l0 -13.35 0 -12.96 0 -7.54 0 -7.72 0 -12.32 0 -4.51c0,0 1.73,0.55 4.92,1.58 1.61,0.51 3.59,1.1 5.89,1.76 2.32,0.63 5.01,1.22 7.96,1.77 2.98,0.55 6.28,0.67 9.86,0.46 3.57,-0.21 7.43,-0.78 11.55,-1.64 4.12,-0.87 8.51,-1.77 13.12,-2.75 105.99,-22.28 333.1,-69.96 333.1,-69.96 0,0 1.92,-0.4 4.81,-0.99 2.89,-0.42 6.8,-0.32 10.73,0.53 3.96,1.52 7.93,4.01 10.93,6.75 3,3.45 5.01,6.06 5.01,6.06 0,0 -0.03,1.41 -0.05,3.68 -0.04,2.28 -0.1,5.23 -0.19,8.55 -0.04,1.62 -0.11,3.33 -0.15,5.09 -0.06,1.77 -0.12,3.65 -0.16,5.61 -0.07,1.99 -0.09,4.1 -0.13,6.23 -0.02,2.16 -0.04,4.35 -0.07,6.54 0,4.34 -0.01,7.95 -0.01,10.29 -0.03,2.39 -0.03,3.71 -0.03,3.71z"/>
      <path id="path224" class="fil4" d="M1682.44 510.43c0,0 -1.41,-1.16 -4.1,-3.05 -2.7,-1.66 -6.65,-3.28 -11.72,-4.04 -2.55,0.15 -5.36,0.49 -8.44,1.04 -3.08,0.63 -6.42,1.35 -9.99,2.11 -76.56,16.07 -260.7,54.73 -342.48,71.92 -3.55,0.74 -6.91,1.44 -10.08,1.96 -3.14,0.49 -6.08,0.57 -8.8,0.47 -2.71,-0.28 -5.17,-0.63 -7.43,-1.04 -4.48,-0.99 -7.98,-2.08 -10.35,-2.97 -2.39,-0.97 -3.64,-1.54 -3.64,-1.54l0 -4.82 0 -11.15 0 -13.32 0 -7.01 0 -7.01 0 -11.17 0 -4.11c0,0 1.19,0.46 3.42,1.32 2.26,0.76 5.56,1.82 9.8,3.04 2.11,0.49 4.45,0.93 7.03,1.23 2.58,0.28 5.35,0.43 8.34,0.36 3,-0.57 6.19,-1.2 9.56,-1.92 84.38,-17.72 284.86,-59.82 354.6,-74.45 3.08,-0.55 5.89,-1.01 8.45,-1.35 5.08,0.65 9.08,2.04 11.78,3.56 2.7,1.92 4.11,3.09 4.11,3.09 0,0 -0.04,4.98 -0.06,12.07 0,1.77 0,3.88 -0.02,6.18 0,2.35 -0.02,4.99 -0.02,7.75 0,2.79 0,5.62 -0.03,8.36 0,2.79 0,5.45 0.03,7.84 0,5.04 0,9.25 0.02,12.08 0.02,2.93 0.02,4.57 0.02,4.57z"/>
      <path id="path228" class="fil1" d="M1682.58 570.01c0,0 -1.45,-1.21 -4.16,-3.25 -2.7,-1.87 -6.71,-3.85 -11.8,-5.03 -2.55,-0.04 -5.36,0.23 -8.45,0.74 -3.08,0.65 -6.41,1.35 -9.96,2.11 -76.57,16.07 -260.73,54.73 -342.5,71.89 -3.55,0.76 -6.91,1.48 -10.08,2.05 -3.14,0.4 -6.08,0.55 -8.8,0.55 -2.71,-0.15 -5.17,-0.47 -7.43,-0.89 -4.48,-1.22 -7.98,-2.43 -10.35,-3.52 -2.39,-1.05 -3.64,-1.73 -3.64,-1.73l0 -4.27 0 -11.12 0 -7.27 0 -7.37 0 -6.86 0 -6.11 0 -10.07 0 -4.56c0,0 1.27,0.55 3.66,1.52 2.34,0.87 5.84,1.98 10.32,2.97 2.26,0.4 4.73,0.79 7.43,1.06 2.73,0.1 5.66,0.02 8.81,-0.49 3.16,-0.51 6.52,-1.2 10.07,-1.96 81.78,-17.17 265.94,-55.85 342.5,-71.92 3.55,-0.76 6.89,-1.46 9.97,-2.09 3.08,-0.59 5.89,-0.91 8.44,-1.04 5.07,0.74 9.02,2.37 11.72,3.95 2.68,1.97 4.1,3.13 4.1,3.13 0,0 0.02,1.59 0.04,4.28 0.03,2.74 0.05,6.52 0.07,11.19 0.02,2.26 0.02,4.73 0.02,7.26 0.02,2.51 0.02,5.13 0.02,7.63 0,2.53 0,4.96 0,7.24l0 6.92 0 10.75 0 4.31z"/>
      <path id="path232" class="fil1" d="M1502.77 536.23l0 5.32 -0.27 0 0 -5.04c0.12,-0.13 0.16,-0.15 0.27,-0.28z"/>
      <path id="path236" class="fil1" d="M1502.77 546.83l0 6.8c-0.09,-0.02 -0.17,-0.08 -0.28,-0.08l0 -6.65c0.11,-0.03 0.19,-0.05 0.28,-0.07z"/>
      <path id="path240" class="fil3" d="M1637.58 569.65l28.76 -6.25 21.07 10.08 -0.32 8.8c0,0.03 0.47,7.03 -14.95,15.96 -8.88,5.18 -44.32,22.85 -49.61,28.78 -5.3,5.96 -7.5,17.72 -7.5,17.72l1.1 -30.13 -2.52 -39.7 23.97 -5.26z"/>
      <path id="path244" class="fil1" d="M1644.93 333.92l0 2.21 -0.1 0.01 0 -2.11c0.04,-0.05 0.06,-0.07 0.1,-0.11z"/>
      <path id="path248" class="fil1" d="M1644.93 338.34l0 2.81c-0.04,0 -0.08,-0.03 -0.1,-0.03l0 -2.76c0.02,-0.02 0.06,-0.02 0.1,-0.02z"/>
      <polygon id="path14" class="fil0" points="497.25,740.97 497.25,891.61 465.92,891.61 465.92,766.94 407.22,766.94 407.22,891.61 375.89,891.61 375.89,740.97 "/>
      <polygon id="path18" class="fil0" points="637.46,740.97 637.46,766.93 557.59,766.94 557.59,798.05 630.83,798.05 630.83,824.02 557.59,824.02 557.59,865.68 640.78,865.68 640.78,891.61 526.3,891.61 526.3,740.97 "/>
      <polygon id="path22" class="fil0" points="695.96,798.06 754.66,798.06 754.66,740.98 785.99,740.98 785.99,891.58 754.66,891.58 754.66,823.99 695.96,823.99 695.96,891.58 664.63,891.58 664.63,740.98 695.96,740.98 "/>
     </g>
    </g>
    <polygon class="fil5" points="34.52,48.68 3000.53,48.68 3000.53,1255.18 34.52,1255.18 "/>
    <polygon class="fil5" points="34.52,48.68 3000.53,48.68 3000.53,1255.18 34.52,1255.18 "/>
   </g>
  </g>
 </g>
</svg>
